%TF.GenerationSoftware,KiCad,Pcbnew,7.0.7*%
%TF.CreationDate,2023-11-01T21:34:32-04:00*%
%TF.ProjectId,TEJ4M-Unit-4-08,54454a34-4d2d-4556-9e69-742d342d3038,rev?*%
%TF.SameCoordinates,Original*%
%TF.FileFunction,Copper,L2,Bot*%
%TF.FilePolarity,Positive*%
%FSLAX46Y46*%
G04 Gerber Fmt 4.6, Leading zero omitted, Abs format (unit mm)*
G04 Created by KiCad (PCBNEW 7.0.7) date 2023-11-01 21:34:32*
%MOMM*%
%LPD*%
G01*
G04 APERTURE LIST*
%TA.AperFunction,ComponentPad*%
%ADD10R,1.600000X1.600000*%
%TD*%
%TA.AperFunction,ComponentPad*%
%ADD11O,1.600000X1.600000*%
%TD*%
%TA.AperFunction,ComponentPad*%
%ADD12C,2.000000*%
%TD*%
%TA.AperFunction,ComponentPad*%
%ADD13C,1.600000*%
%TD*%
%TA.AperFunction,ComponentPad*%
%ADD14R,1.800000X1.800000*%
%TD*%
%TA.AperFunction,ComponentPad*%
%ADD15C,1.800000*%
%TD*%
%TA.AperFunction,ViaPad*%
%ADD16C,0.800000*%
%TD*%
%TA.AperFunction,Conductor*%
%ADD17C,0.250000*%
%TD*%
G04 APERTURE END LIST*
D10*
%TO.P,U7,1*%
%TO.N,Net-(U5-Pad3)*%
X161200000Y-63800000D03*
D11*
%TO.P,U7,2*%
%TO.N,Net-(D4-A)*%
X163740000Y-63800000D03*
%TO.P,U7,3*%
%TO.N,Net-(D3-A)*%
X166280000Y-63800000D03*
%TO.P,U7,4*%
%TO.N,N/C*%
X168820000Y-63800000D03*
%TO.P,U7,5*%
X168820000Y-56180000D03*
%TO.P,U7,6*%
X166280000Y-56180000D03*
%TO.P,U7,7*%
X163740000Y-56180000D03*
%TO.P,U7,8*%
X161200000Y-56180000D03*
%TD*%
D10*
%TO.P,U6,1*%
%TO.N,Net-(D3-A)*%
X161200000Y-88800000D03*
D11*
%TO.P,U6,2*%
%TO.N,Net-(U4-Pad3)*%
X163740000Y-88800000D03*
%TO.P,U6,3*%
%TO.N,Net-(D4-A)*%
X166280000Y-88800000D03*
%TO.P,U6,4*%
%TO.N,N/C*%
X168820000Y-88800000D03*
%TO.P,U6,5*%
X168820000Y-81180000D03*
%TO.P,U6,6*%
X166280000Y-81180000D03*
%TO.P,U6,7*%
X163740000Y-81180000D03*
%TO.P,U6,8*%
X161200000Y-81180000D03*
%TD*%
D10*
%TO.P,U5,1*%
%TO.N,Net-(U3-Pad2)*%
X146200000Y-63800000D03*
D11*
%TO.P,U5,2*%
%TO.N,Net-(R2-Pad1)*%
X148740000Y-63800000D03*
%TO.P,U5,3*%
%TO.N,Net-(U5-Pad3)*%
X151280000Y-63800000D03*
%TO.P,U5,4*%
%TO.N,N/C*%
X153820000Y-63800000D03*
%TO.P,U5,5*%
X153820000Y-56180000D03*
%TO.P,U5,6*%
X151280000Y-56180000D03*
%TO.P,U5,7*%
X148740000Y-56180000D03*
%TO.P,U5,8*%
X146200000Y-56180000D03*
%TD*%
D10*
%TO.P,U4,1*%
%TO.N,Net-(R2-Pad1)*%
X146200000Y-88800000D03*
D11*
%TO.P,U4,2*%
%TO.N,Net-(R1-Pad1)*%
X148740000Y-88800000D03*
%TO.P,U4,3*%
%TO.N,Net-(U4-Pad3)*%
X151280000Y-88800000D03*
%TO.P,U4,4*%
%TO.N,N/C*%
X153820000Y-88800000D03*
%TO.P,U4,5*%
X153820000Y-81180000D03*
%TO.P,U4,6*%
X151280000Y-81180000D03*
%TO.P,U4,7*%
X148740000Y-81180000D03*
%TO.P,U4,8*%
X146200000Y-81180000D03*
%TD*%
D10*
%TO.P,U3,1*%
%TO.N,Net-(R1-Pad1)*%
X131200000Y-63800000D03*
D11*
%TO.P,U3,2*%
%TO.N,Net-(U3-Pad2)*%
X133740000Y-63800000D03*
%TO.P,U3,3*%
%TO.N,N/C*%
X136280000Y-63800000D03*
%TO.P,U3,4*%
X138820000Y-63800000D03*
%TO.P,U3,5*%
X138820000Y-56180000D03*
%TO.P,U3,6*%
X136280000Y-56180000D03*
%TO.P,U3,7*%
X133740000Y-56180000D03*
%TO.P,U3,8*%
X131200000Y-56180000D03*
%TD*%
D12*
%TO.P,U2,1*%
%TO.N,+5V*%
X111750000Y-81750000D03*
X111750000Y-88250000D03*
%TO.P,U2,2*%
%TO.N,Net-(R2-Pad1)*%
X116250000Y-81750000D03*
X116250000Y-88250000D03*
%TD*%
%TO.P,U1,1*%
%TO.N,+5V*%
X111750000Y-61750000D03*
X111750000Y-68250000D03*
%TO.P,U1,2*%
%TO.N,Net-(R1-Pad1)*%
X116250000Y-61750000D03*
X116250000Y-68250000D03*
%TD*%
D11*
%TO.P,R4,2*%
%TO.N,GND*%
X188810000Y-95000000D03*
D13*
%TO.P,R4,1*%
%TO.N,Net-(D4-K)*%
X181190000Y-95000000D03*
%TD*%
%TO.P,R3,1*%
%TO.N,Net-(D3-K)*%
X181190000Y-55000000D03*
D11*
%TO.P,R3,2*%
%TO.N,GND*%
X188810000Y-55000000D03*
%TD*%
D13*
%TO.P,R2,1*%
%TO.N,Net-(R2-Pad1)*%
X116190000Y-95000000D03*
D11*
%TO.P,R2,2*%
%TO.N,GND*%
X123810000Y-95000000D03*
%TD*%
D13*
%TO.P,R1,1*%
%TO.N,Net-(R1-Pad1)*%
X116190000Y-55000000D03*
D11*
%TO.P,R1,2*%
%TO.N,GND*%
X123810000Y-55000000D03*
%TD*%
D14*
%TO.P,D4,1,K*%
%TO.N,Net-(D4-K)*%
X183175000Y-86250000D03*
D15*
%TO.P,D4,2,A*%
%TO.N,Net-(D4-A)*%
X183175000Y-83710000D03*
%TD*%
D14*
%TO.P,D3,1,K*%
%TO.N,Net-(D3-K)*%
X183175000Y-66250000D03*
D15*
%TO.P,D3,2,A*%
%TO.N,Net-(D3-A)*%
X183175000Y-63710000D03*
%TD*%
D16*
%TO.N,Net-(D3-A)*%
X181000000Y-64000000D03*
X177000000Y-64000000D03*
%TO.N,Net-(D4-A)*%
X163000000Y-69000000D03*
X165000000Y-71000000D03*
%TO.N,Net-(R2-Pad1)*%
X127000000Y-89000000D03*
X125000000Y-91000000D03*
%TD*%
D17*
%TO.N,Net-(D3-A)*%
X177000000Y-64000000D02*
X181000000Y-64000000D01*
%TO.N,Net-(D4-A)*%
X165000000Y-71000000D02*
X163000000Y-69000000D01*
%TO.N,Net-(R2-Pad1)*%
X125000000Y-91000000D02*
X127000000Y-89000000D01*
%TD*%
M02*
