%TF.GenerationSoftware,KiCad,Pcbnew,7.0.7*%
%TF.CreationDate,2023-11-01T21:34:32-04:00*%
%TF.ProjectId,TEJ4M-Unit-4-08,54454a34-4d2d-4556-9e69-742d342d3038,rev?*%
%TF.SameCoordinates,Original*%
%TF.FileFunction,Copper,L1,Top*%
%TF.FilePolarity,Positive*%
%FSLAX46Y46*%
G04 Gerber Fmt 4.6, Leading zero omitted, Abs format (unit mm)*
G04 Created by KiCad (PCBNEW 7.0.7) date 2023-11-01 21:34:32*
%MOMM*%
%LPD*%
G01*
G04 APERTURE LIST*
%ADD10C,0.300000*%
%TA.AperFunction,NonConductor*%
%ADD11C,0.300000*%
%TD*%
%TA.AperFunction,ComponentPad*%
%ADD12R,1.600000X1.600000*%
%TD*%
%TA.AperFunction,ComponentPad*%
%ADD13O,1.600000X1.600000*%
%TD*%
%TA.AperFunction,ComponentPad*%
%ADD14C,2.000000*%
%TD*%
%TA.AperFunction,ComponentPad*%
%ADD15C,1.600000*%
%TD*%
%TA.AperFunction,ComponentPad*%
%ADD16R,1.800000X1.800000*%
%TD*%
%TA.AperFunction,ComponentPad*%
%ADD17C,1.800000*%
%TD*%
%TA.AperFunction,ViaPad*%
%ADD18C,0.800000*%
%TD*%
%TA.AperFunction,Conductor*%
%ADD19C,0.250000*%
%TD*%
G04 APERTURE END LIST*
D10*
D11*
X101411653Y-42827971D02*
X101340225Y-42899400D01*
X101340225Y-42899400D02*
X101125939Y-42970828D01*
X101125939Y-42970828D02*
X100983082Y-42970828D01*
X100983082Y-42970828D02*
X100768796Y-42899400D01*
X100768796Y-42899400D02*
X100625939Y-42756542D01*
X100625939Y-42756542D02*
X100554510Y-42613685D01*
X100554510Y-42613685D02*
X100483082Y-42327971D01*
X100483082Y-42327971D02*
X100483082Y-42113685D01*
X100483082Y-42113685D02*
X100554510Y-41827971D01*
X100554510Y-41827971D02*
X100625939Y-41685114D01*
X100625939Y-41685114D02*
X100768796Y-41542257D01*
X100768796Y-41542257D02*
X100983082Y-41470828D01*
X100983082Y-41470828D02*
X101125939Y-41470828D01*
X101125939Y-41470828D02*
X101340225Y-41542257D01*
X101340225Y-41542257D02*
X101411653Y-41613685D01*
X102697368Y-41970828D02*
X102697368Y-42970828D01*
X102054510Y-41970828D02*
X102054510Y-42756542D01*
X102054510Y-42756542D02*
X102125939Y-42899400D01*
X102125939Y-42899400D02*
X102268796Y-42970828D01*
X102268796Y-42970828D02*
X102483082Y-42970828D01*
X102483082Y-42970828D02*
X102625939Y-42899400D01*
X102625939Y-42899400D02*
X102697368Y-42827971D01*
X103411653Y-42970828D02*
X103411653Y-41970828D01*
X103411653Y-42256542D02*
X103483082Y-42113685D01*
X103483082Y-42113685D02*
X103554511Y-42042257D01*
X103554511Y-42042257D02*
X103697368Y-41970828D01*
X103697368Y-41970828D02*
X103840225Y-41970828D01*
X104125939Y-41970828D02*
X104697367Y-41970828D01*
X104340224Y-41470828D02*
X104340224Y-42756542D01*
X104340224Y-42756542D02*
X104411653Y-42899400D01*
X104411653Y-42899400D02*
X104554510Y-42970828D01*
X104554510Y-42970828D02*
X104697367Y-42970828D01*
X105197367Y-42970828D02*
X105197367Y-41970828D01*
X105197367Y-41470828D02*
X105125939Y-41542257D01*
X105125939Y-41542257D02*
X105197367Y-41613685D01*
X105197367Y-41613685D02*
X105268796Y-41542257D01*
X105268796Y-41542257D02*
X105197367Y-41470828D01*
X105197367Y-41470828D02*
X105197367Y-41613685D01*
X105840225Y-42899400D02*
X105983082Y-42970828D01*
X105983082Y-42970828D02*
X106268796Y-42970828D01*
X106268796Y-42970828D02*
X106411653Y-42899400D01*
X106411653Y-42899400D02*
X106483082Y-42756542D01*
X106483082Y-42756542D02*
X106483082Y-42685114D01*
X106483082Y-42685114D02*
X106411653Y-42542257D01*
X106411653Y-42542257D02*
X106268796Y-42470828D01*
X106268796Y-42470828D02*
X106054511Y-42470828D01*
X106054511Y-42470828D02*
X105911653Y-42399400D01*
X105911653Y-42399400D02*
X105840225Y-42256542D01*
X105840225Y-42256542D02*
X105840225Y-42185114D01*
X105840225Y-42185114D02*
X105911653Y-42042257D01*
X105911653Y-42042257D02*
X106054511Y-41970828D01*
X106054511Y-41970828D02*
X106268796Y-41970828D01*
X106268796Y-41970828D02*
X106411653Y-42042257D01*
X108268796Y-42185114D02*
X108768796Y-42185114D01*
X108983082Y-42970828D02*
X108268796Y-42970828D01*
X108268796Y-42970828D02*
X108268796Y-41470828D01*
X108268796Y-41470828D02*
X108983082Y-41470828D01*
X110268797Y-42970828D02*
X110268797Y-41470828D01*
X110268797Y-42899400D02*
X110125939Y-42970828D01*
X110125939Y-42970828D02*
X109840225Y-42970828D01*
X109840225Y-42970828D02*
X109697368Y-42899400D01*
X109697368Y-42899400D02*
X109625939Y-42827971D01*
X109625939Y-42827971D02*
X109554511Y-42685114D01*
X109554511Y-42685114D02*
X109554511Y-42256542D01*
X109554511Y-42256542D02*
X109625939Y-42113685D01*
X109625939Y-42113685D02*
X109697368Y-42042257D01*
X109697368Y-42042257D02*
X109840225Y-41970828D01*
X109840225Y-41970828D02*
X110125939Y-41970828D01*
X110125939Y-41970828D02*
X110268797Y-42042257D01*
X110840225Y-41970828D02*
X111125940Y-42970828D01*
X111125940Y-42970828D02*
X111411654Y-42256542D01*
X111411654Y-42256542D02*
X111697368Y-42970828D01*
X111697368Y-42970828D02*
X111983082Y-41970828D01*
X113197369Y-42970828D02*
X113197369Y-42185114D01*
X113197369Y-42185114D02*
X113125940Y-42042257D01*
X113125940Y-42042257D02*
X112983083Y-41970828D01*
X112983083Y-41970828D02*
X112697369Y-41970828D01*
X112697369Y-41970828D02*
X112554511Y-42042257D01*
X113197369Y-42899400D02*
X113054511Y-42970828D01*
X113054511Y-42970828D02*
X112697369Y-42970828D01*
X112697369Y-42970828D02*
X112554511Y-42899400D01*
X112554511Y-42899400D02*
X112483083Y-42756542D01*
X112483083Y-42756542D02*
X112483083Y-42613685D01*
X112483083Y-42613685D02*
X112554511Y-42470828D01*
X112554511Y-42470828D02*
X112697369Y-42399400D01*
X112697369Y-42399400D02*
X113054511Y-42399400D01*
X113054511Y-42399400D02*
X113197369Y-42327971D01*
X113911654Y-42970828D02*
X113911654Y-41970828D01*
X113911654Y-42256542D02*
X113983083Y-42113685D01*
X113983083Y-42113685D02*
X114054512Y-42042257D01*
X114054512Y-42042257D02*
X114197369Y-41970828D01*
X114197369Y-41970828D02*
X114340226Y-41970828D01*
X115483083Y-42970828D02*
X115483083Y-41470828D01*
X115483083Y-42899400D02*
X115340225Y-42970828D01*
X115340225Y-42970828D02*
X115054511Y-42970828D01*
X115054511Y-42970828D02*
X114911654Y-42899400D01*
X114911654Y-42899400D02*
X114840225Y-42827971D01*
X114840225Y-42827971D02*
X114768797Y-42685114D01*
X114768797Y-42685114D02*
X114768797Y-42256542D01*
X114768797Y-42256542D02*
X114840225Y-42113685D01*
X114840225Y-42113685D02*
X114911654Y-42042257D01*
X114911654Y-42042257D02*
X115054511Y-41970828D01*
X115054511Y-41970828D02*
X115340225Y-41970828D01*
X115340225Y-41970828D02*
X115483083Y-42042257D01*
X116125940Y-42899400D02*
X116268797Y-42970828D01*
X116268797Y-42970828D02*
X116554511Y-42970828D01*
X116554511Y-42970828D02*
X116697368Y-42899400D01*
X116697368Y-42899400D02*
X116768797Y-42756542D01*
X116768797Y-42756542D02*
X116768797Y-42685114D01*
X116768797Y-42685114D02*
X116697368Y-42542257D01*
X116697368Y-42542257D02*
X116554511Y-42470828D01*
X116554511Y-42470828D02*
X116340226Y-42470828D01*
X116340226Y-42470828D02*
X116197368Y-42399400D01*
X116197368Y-42399400D02*
X116125940Y-42256542D01*
X116125940Y-42256542D02*
X116125940Y-42185114D01*
X116125940Y-42185114D02*
X116197368Y-42042257D01*
X116197368Y-42042257D02*
X116340226Y-41970828D01*
X116340226Y-41970828D02*
X116554511Y-41970828D01*
X116554511Y-41970828D02*
X116697368Y-42042257D01*
X100340225Y-43885828D02*
X101197368Y-43885828D01*
X100768796Y-45385828D02*
X100768796Y-43885828D01*
X101697367Y-44600114D02*
X102197367Y-44600114D01*
X102411653Y-45385828D02*
X101697367Y-45385828D01*
X101697367Y-45385828D02*
X101697367Y-43885828D01*
X101697367Y-43885828D02*
X102411653Y-43885828D01*
X103483082Y-43885828D02*
X103483082Y-44957257D01*
X103483082Y-44957257D02*
X103411653Y-45171542D01*
X103411653Y-45171542D02*
X103268796Y-45314400D01*
X103268796Y-45314400D02*
X103054510Y-45385828D01*
X103054510Y-45385828D02*
X102911653Y-45385828D01*
X104840225Y-44385828D02*
X104840225Y-45385828D01*
X104483082Y-43814400D02*
X104125939Y-44885828D01*
X104125939Y-44885828D02*
X105054510Y-44885828D01*
X105625938Y-45385828D02*
X105625938Y-43885828D01*
X105625938Y-43885828D02*
X106125938Y-44957257D01*
X106125938Y-44957257D02*
X106625938Y-43885828D01*
X106625938Y-43885828D02*
X106625938Y-45385828D01*
X100554510Y-46300828D02*
X100554510Y-47515114D01*
X100554510Y-47515114D02*
X100625939Y-47657971D01*
X100625939Y-47657971D02*
X100697368Y-47729400D01*
X100697368Y-47729400D02*
X100840225Y-47800828D01*
X100840225Y-47800828D02*
X101125939Y-47800828D01*
X101125939Y-47800828D02*
X101268796Y-47729400D01*
X101268796Y-47729400D02*
X101340225Y-47657971D01*
X101340225Y-47657971D02*
X101411653Y-47515114D01*
X101411653Y-47515114D02*
X101411653Y-46300828D01*
X102125939Y-46800828D02*
X102125939Y-47800828D01*
X102125939Y-46943685D02*
X102197368Y-46872257D01*
X102197368Y-46872257D02*
X102340225Y-46800828D01*
X102340225Y-46800828D02*
X102554511Y-46800828D01*
X102554511Y-46800828D02*
X102697368Y-46872257D01*
X102697368Y-46872257D02*
X102768797Y-47015114D01*
X102768797Y-47015114D02*
X102768797Y-47800828D01*
X103483082Y-47800828D02*
X103483082Y-46800828D01*
X103483082Y-46300828D02*
X103411654Y-46372257D01*
X103411654Y-46372257D02*
X103483082Y-46443685D01*
X103483082Y-46443685D02*
X103554511Y-46372257D01*
X103554511Y-46372257D02*
X103483082Y-46300828D01*
X103483082Y-46300828D02*
X103483082Y-46443685D01*
X103983083Y-46800828D02*
X104554511Y-46800828D01*
X104197368Y-46300828D02*
X104197368Y-47586542D01*
X104197368Y-47586542D02*
X104268797Y-47729400D01*
X104268797Y-47729400D02*
X104411654Y-47800828D01*
X104411654Y-47800828D02*
X104554511Y-47800828D01*
X105054511Y-47229400D02*
X106197369Y-47229400D01*
X106840226Y-46443685D02*
X106911654Y-46372257D01*
X106911654Y-46372257D02*
X107054512Y-46300828D01*
X107054512Y-46300828D02*
X107411654Y-46300828D01*
X107411654Y-46300828D02*
X107554512Y-46372257D01*
X107554512Y-46372257D02*
X107625940Y-46443685D01*
X107625940Y-46443685D02*
X107697369Y-46586542D01*
X107697369Y-46586542D02*
X107697369Y-46729400D01*
X107697369Y-46729400D02*
X107625940Y-46943685D01*
X107625940Y-46943685D02*
X106768797Y-47800828D01*
X106768797Y-47800828D02*
X107697369Y-47800828D01*
X108340225Y-47229400D02*
X109483083Y-47229400D01*
X110483083Y-46300828D02*
X110625940Y-46300828D01*
X110625940Y-46300828D02*
X110768797Y-46372257D01*
X110768797Y-46372257D02*
X110840226Y-46443685D01*
X110840226Y-46443685D02*
X110911654Y-46586542D01*
X110911654Y-46586542D02*
X110983083Y-46872257D01*
X110983083Y-46872257D02*
X110983083Y-47229400D01*
X110983083Y-47229400D02*
X110911654Y-47515114D01*
X110911654Y-47515114D02*
X110840226Y-47657971D01*
X110840226Y-47657971D02*
X110768797Y-47729400D01*
X110768797Y-47729400D02*
X110625940Y-47800828D01*
X110625940Y-47800828D02*
X110483083Y-47800828D01*
X110483083Y-47800828D02*
X110340226Y-47729400D01*
X110340226Y-47729400D02*
X110268797Y-47657971D01*
X110268797Y-47657971D02*
X110197368Y-47515114D01*
X110197368Y-47515114D02*
X110125940Y-47229400D01*
X110125940Y-47229400D02*
X110125940Y-46872257D01*
X110125940Y-46872257D02*
X110197368Y-46586542D01*
X110197368Y-46586542D02*
X110268797Y-46443685D01*
X110268797Y-46443685D02*
X110340226Y-46372257D01*
X110340226Y-46372257D02*
X110483083Y-46300828D01*
X111840225Y-46943685D02*
X111697368Y-46872257D01*
X111697368Y-46872257D02*
X111625939Y-46800828D01*
X111625939Y-46800828D02*
X111554511Y-46657971D01*
X111554511Y-46657971D02*
X111554511Y-46586542D01*
X111554511Y-46586542D02*
X111625939Y-46443685D01*
X111625939Y-46443685D02*
X111697368Y-46372257D01*
X111697368Y-46372257D02*
X111840225Y-46300828D01*
X111840225Y-46300828D02*
X112125939Y-46300828D01*
X112125939Y-46300828D02*
X112268797Y-46372257D01*
X112268797Y-46372257D02*
X112340225Y-46443685D01*
X112340225Y-46443685D02*
X112411654Y-46586542D01*
X112411654Y-46586542D02*
X112411654Y-46657971D01*
X112411654Y-46657971D02*
X112340225Y-46800828D01*
X112340225Y-46800828D02*
X112268797Y-46872257D01*
X112268797Y-46872257D02*
X112125939Y-46943685D01*
X112125939Y-46943685D02*
X111840225Y-46943685D01*
X111840225Y-46943685D02*
X111697368Y-47015114D01*
X111697368Y-47015114D02*
X111625939Y-47086542D01*
X111625939Y-47086542D02*
X111554511Y-47229400D01*
X111554511Y-47229400D02*
X111554511Y-47515114D01*
X111554511Y-47515114D02*
X111625939Y-47657971D01*
X111625939Y-47657971D02*
X111697368Y-47729400D01*
X111697368Y-47729400D02*
X111840225Y-47800828D01*
X111840225Y-47800828D02*
X112125939Y-47800828D01*
X112125939Y-47800828D02*
X112268797Y-47729400D01*
X112268797Y-47729400D02*
X112340225Y-47657971D01*
X112340225Y-47657971D02*
X112411654Y-47515114D01*
X112411654Y-47515114D02*
X112411654Y-47229400D01*
X112411654Y-47229400D02*
X112340225Y-47086542D01*
X112340225Y-47086542D02*
X112268797Y-47015114D01*
X112268797Y-47015114D02*
X112125939Y-46943685D01*
D12*
%TO.P,U7,1*%
%TO.N,Net-(U5-Pad3)*%
X161200000Y-63800000D03*
D13*
%TO.P,U7,2*%
%TO.N,Net-(D4-A)*%
X163740000Y-63800000D03*
%TO.P,U7,3*%
%TO.N,Net-(D3-A)*%
X166280000Y-63800000D03*
%TO.P,U7,4*%
%TO.N,N/C*%
X168820000Y-63800000D03*
%TO.P,U7,5*%
X168820000Y-56180000D03*
%TO.P,U7,6*%
X166280000Y-56180000D03*
%TO.P,U7,7*%
X163740000Y-56180000D03*
%TO.P,U7,8*%
X161200000Y-56180000D03*
%TD*%
D12*
%TO.P,U6,1*%
%TO.N,Net-(D3-A)*%
X161200000Y-88800000D03*
D13*
%TO.P,U6,2*%
%TO.N,Net-(U4-Pad3)*%
X163740000Y-88800000D03*
%TO.P,U6,3*%
%TO.N,Net-(D4-A)*%
X166280000Y-88800000D03*
%TO.P,U6,4*%
%TO.N,N/C*%
X168820000Y-88800000D03*
%TO.P,U6,5*%
X168820000Y-81180000D03*
%TO.P,U6,6*%
X166280000Y-81180000D03*
%TO.P,U6,7*%
X163740000Y-81180000D03*
%TO.P,U6,8*%
X161200000Y-81180000D03*
%TD*%
D12*
%TO.P,U5,1*%
%TO.N,Net-(U3-Pad2)*%
X146200000Y-63800000D03*
D13*
%TO.P,U5,2*%
%TO.N,Net-(R2-Pad1)*%
X148740000Y-63800000D03*
%TO.P,U5,3*%
%TO.N,Net-(U5-Pad3)*%
X151280000Y-63800000D03*
%TO.P,U5,4*%
%TO.N,N/C*%
X153820000Y-63800000D03*
%TO.P,U5,5*%
X153820000Y-56180000D03*
%TO.P,U5,6*%
X151280000Y-56180000D03*
%TO.P,U5,7*%
X148740000Y-56180000D03*
%TO.P,U5,8*%
X146200000Y-56180000D03*
%TD*%
D12*
%TO.P,U4,1*%
%TO.N,Net-(R2-Pad1)*%
X146200000Y-88800000D03*
D13*
%TO.P,U4,2*%
%TO.N,Net-(R1-Pad1)*%
X148740000Y-88800000D03*
%TO.P,U4,3*%
%TO.N,Net-(U4-Pad3)*%
X151280000Y-88800000D03*
%TO.P,U4,4*%
%TO.N,N/C*%
X153820000Y-88800000D03*
%TO.P,U4,5*%
X153820000Y-81180000D03*
%TO.P,U4,6*%
X151280000Y-81180000D03*
%TO.P,U4,7*%
X148740000Y-81180000D03*
%TO.P,U4,8*%
X146200000Y-81180000D03*
%TD*%
D12*
%TO.P,U3,1*%
%TO.N,Net-(R1-Pad1)*%
X131200000Y-63800000D03*
D13*
%TO.P,U3,2*%
%TO.N,Net-(U3-Pad2)*%
X133740000Y-63800000D03*
%TO.P,U3,3*%
%TO.N,N/C*%
X136280000Y-63800000D03*
%TO.P,U3,4*%
X138820000Y-63800000D03*
%TO.P,U3,5*%
X138820000Y-56180000D03*
%TO.P,U3,6*%
X136280000Y-56180000D03*
%TO.P,U3,7*%
X133740000Y-56180000D03*
%TO.P,U3,8*%
X131200000Y-56180000D03*
%TD*%
D14*
%TO.P,U2,1*%
%TO.N,+5V*%
X111750000Y-81750000D03*
X111750000Y-88250000D03*
%TO.P,U2,2*%
%TO.N,Net-(R2-Pad1)*%
X116250000Y-81750000D03*
X116250000Y-88250000D03*
%TD*%
%TO.P,U1,1*%
%TO.N,+5V*%
X111750000Y-61750000D03*
X111750000Y-68250000D03*
%TO.P,U1,2*%
%TO.N,Net-(R1-Pad1)*%
X116250000Y-61750000D03*
X116250000Y-68250000D03*
%TD*%
D13*
%TO.P,R4,2*%
%TO.N,GND*%
X188810000Y-95000000D03*
D15*
%TO.P,R4,1*%
%TO.N,Net-(D4-K)*%
X181190000Y-95000000D03*
%TD*%
%TO.P,R3,1*%
%TO.N,Net-(D3-K)*%
X181190000Y-55000000D03*
D13*
%TO.P,R3,2*%
%TO.N,GND*%
X188810000Y-55000000D03*
%TD*%
D15*
%TO.P,R2,1*%
%TO.N,Net-(R2-Pad1)*%
X116190000Y-95000000D03*
D13*
%TO.P,R2,2*%
%TO.N,GND*%
X123810000Y-95000000D03*
%TD*%
D15*
%TO.P,R1,1*%
%TO.N,Net-(R1-Pad1)*%
X116190000Y-55000000D03*
D13*
%TO.P,R1,2*%
%TO.N,GND*%
X123810000Y-55000000D03*
%TD*%
D16*
%TO.P,D4,1,K*%
%TO.N,Net-(D4-K)*%
X183175000Y-86250000D03*
D17*
%TO.P,D4,2,A*%
%TO.N,Net-(D4-A)*%
X183175000Y-83710000D03*
%TD*%
D16*
%TO.P,D3,1,K*%
%TO.N,Net-(D3-K)*%
X183175000Y-66250000D03*
D17*
%TO.P,D3,2,A*%
%TO.N,Net-(D3-A)*%
X183175000Y-63710000D03*
%TD*%
D18*
%TO.N,Net-(D3-A)*%
X181000000Y-64000000D03*
X177000000Y-64000000D03*
%TO.N,Net-(D4-A)*%
X163000000Y-69000000D03*
X165000000Y-71000000D03*
%TO.N,Net-(R2-Pad1)*%
X127000000Y-89000000D03*
X125000000Y-91000000D03*
%TD*%
D19*
%TO.N,+5V*%
X111750000Y-68250000D02*
X111750000Y-61750000D01*
X111750000Y-81750000D02*
X111750000Y-88250000D01*
%TO.N,Net-(R2-Pad1)*%
X116250000Y-88250000D02*
X116250000Y-81750000D01*
%TO.N,Net-(R1-Pad1)*%
X116250000Y-68250000D02*
X116250000Y-61750000D01*
%TO.N,GND*%
X126810000Y-52000000D02*
X193000000Y-52000000D01*
X123810000Y-55000000D02*
X126810000Y-52000000D01*
X180000000Y-98000000D02*
X193000000Y-98000000D01*
X123810000Y-95000000D02*
X177000000Y-95000000D01*
X177000000Y-95000000D02*
X180000000Y-98000000D01*
X188810000Y-55000000D02*
X193000000Y-55000000D01*
X188810000Y-95000000D02*
X193000000Y-95000000D01*
%TO.N,+5V*%
X111750000Y-61750000D02*
X104250000Y-61750000D01*
X111750000Y-88250000D02*
X104750000Y-88250000D01*
%TO.N,Net-(D3-A)*%
X181000000Y-64000000D02*
X182885000Y-64000000D01*
X182885000Y-64000000D02*
X183175000Y-63710000D01*
X174000000Y-64000000D02*
X177000000Y-64000000D01*
X172000000Y-66000000D02*
X174000000Y-64000000D01*
X167000000Y-66000000D02*
X172000000Y-66000000D01*
X166280000Y-65280000D02*
X167000000Y-66000000D01*
X166280000Y-63800000D02*
X166280000Y-65280000D01*
%TO.N,Net-(D3-K)*%
X180000000Y-55000000D02*
X181190000Y-55000000D01*
X180250000Y-66250000D02*
X179000000Y-65000000D01*
X179000000Y-65000000D02*
X179000000Y-56000000D01*
X179000000Y-56000000D02*
X180000000Y-55000000D01*
X183175000Y-66250000D02*
X180250000Y-66250000D01*
%TO.N,Net-(D4-A)*%
X175885000Y-91000000D02*
X171000000Y-91000000D01*
X183175000Y-83710000D02*
X175885000Y-91000000D01*
%TO.N,Net-(D4-K)*%
X181190000Y-88235000D02*
X183175000Y-86250000D01*
X181190000Y-95000000D02*
X181190000Y-88235000D01*
%TO.N,Net-(D4-A)*%
X163740000Y-66260000D02*
X163740000Y-63800000D01*
X163000000Y-69000000D02*
X163000000Y-67000000D01*
X163000000Y-67000000D02*
X163740000Y-66260000D01*
X171000000Y-91000000D02*
X172000000Y-90000000D01*
X167000000Y-91000000D02*
X171000000Y-91000000D01*
X172000000Y-78000000D02*
X165000000Y-71000000D01*
X166280000Y-90280000D02*
X167000000Y-91000000D01*
X172000000Y-90000000D02*
X172000000Y-78000000D01*
X166280000Y-88800000D02*
X166280000Y-90280000D01*
%TO.N,Net-(D3-A)*%
X166280000Y-67720000D02*
X166280000Y-63800000D01*
X159000000Y-75000000D02*
X166280000Y-67720000D01*
X159800000Y-88800000D02*
X159000000Y-88000000D01*
X161200000Y-88800000D02*
X159800000Y-88800000D01*
X159000000Y-88000000D02*
X159000000Y-75000000D01*
%TO.N,Net-(U4-Pad3)*%
X152000000Y-91000000D02*
X163000000Y-91000000D01*
X151280000Y-90280000D02*
X152000000Y-91000000D01*
X151280000Y-88800000D02*
X151280000Y-90280000D01*
X163000000Y-91000000D02*
X163740000Y-90260000D01*
X163740000Y-90260000D02*
X163740000Y-88800000D01*
%TO.N,Net-(U5-Pad3)*%
X160000000Y-66000000D02*
X161200000Y-64800000D01*
X152000000Y-66000000D02*
X160000000Y-66000000D01*
X151280000Y-65280000D02*
X152000000Y-66000000D01*
X161200000Y-64800000D02*
X161200000Y-63800000D01*
X151280000Y-63800000D02*
X151280000Y-65280000D01*
%TO.N,Net-(U3-Pad2)*%
X146200000Y-65800000D02*
X146200000Y-63800000D01*
X145000000Y-67000000D02*
X146200000Y-65800000D01*
X133740000Y-65740000D02*
X135000000Y-67000000D01*
X133740000Y-63800000D02*
X133740000Y-65740000D01*
X135000000Y-67000000D02*
X145000000Y-67000000D01*
%TO.N,Net-(R1-Pad1)*%
X125000000Y-89000000D02*
X128000000Y-92000000D01*
X125000000Y-64000000D02*
X125000000Y-89000000D01*
X128000000Y-92000000D02*
X145540000Y-92000000D01*
X145540000Y-92000000D02*
X148740000Y-88800000D01*
X122750000Y-61750000D02*
X125000000Y-64000000D01*
%TO.N,Net-(R2-Pad1)*%
X148740000Y-67260000D02*
X148740000Y-63800000D01*
X127000000Y-89000000D02*
X148740000Y-67260000D01*
X145000000Y-90000000D02*
X146200000Y-88800000D01*
X128000000Y-90000000D02*
X145000000Y-90000000D01*
X127000000Y-89000000D02*
X128000000Y-90000000D01*
X122250000Y-88250000D02*
X125000000Y-91000000D01*
X116250000Y-88250000D02*
X122250000Y-88250000D01*
%TO.N,Net-(R1-Pad1)*%
X122750000Y-61750000D02*
X124800000Y-63800000D01*
X116250000Y-61750000D02*
X122750000Y-61750000D01*
X124800000Y-63800000D02*
X131200000Y-63800000D01*
%TO.N,Net-(R2-Pad1)*%
X116190000Y-95000000D02*
X116190000Y-88310000D01*
X116190000Y-88310000D02*
X116250000Y-88250000D01*
%TO.N,Net-(R1-Pad1)*%
X116190000Y-61690000D02*
X116250000Y-61750000D01*
X116190000Y-55000000D02*
X116190000Y-61690000D01*
%TD*%
%TA.AperFunction,Conductor*%
%TO.N,+5V*%
G36*
X107943039Y-50020185D02*
G01*
X107988794Y-50072989D01*
X108000000Y-50124500D01*
X108000000Y-99875500D01*
X107980315Y-99942539D01*
X107927511Y-99988294D01*
X107876000Y-99999500D01*
X100124500Y-99999500D01*
X100057461Y-99979815D01*
X100011706Y-99927011D01*
X100000500Y-99875500D01*
X100000500Y-96124334D01*
X102499500Y-96124334D01*
X102540429Y-96369616D01*
X102621169Y-96604802D01*
X102621172Y-96604811D01*
X102739524Y-96823506D01*
X102739526Y-96823509D01*
X102892262Y-97019744D01*
X103051744Y-97166557D01*
X103075217Y-97188166D01*
X103283393Y-97324173D01*
X103511118Y-97424063D01*
X103752175Y-97485107D01*
X103752179Y-97485108D01*
X103752181Y-97485108D01*
X103752186Y-97485109D01*
X103885376Y-97496145D01*
X103937933Y-97500500D01*
X103937935Y-97500500D01*
X104062065Y-97500500D01*
X104062067Y-97500500D01*
X104123284Y-97495427D01*
X104247813Y-97485109D01*
X104247816Y-97485108D01*
X104247821Y-97485108D01*
X104488881Y-97424063D01*
X104716607Y-97324173D01*
X104924785Y-97188164D01*
X105107738Y-97019744D01*
X105260474Y-96823509D01*
X105378828Y-96604810D01*
X105459571Y-96369614D01*
X105500500Y-96124335D01*
X105500500Y-95875665D01*
X105459571Y-95630386D01*
X105378828Y-95395190D01*
X105260474Y-95176491D01*
X105107738Y-94980256D01*
X104924785Y-94811836D01*
X104924782Y-94811833D01*
X104716606Y-94675826D01*
X104488881Y-94575936D01*
X104247824Y-94514892D01*
X104247813Y-94514890D01*
X104082548Y-94501197D01*
X104062067Y-94499500D01*
X103937933Y-94499500D01*
X103918521Y-94501108D01*
X103752186Y-94514890D01*
X103752175Y-94514892D01*
X103511118Y-94575936D01*
X103283393Y-94675826D01*
X103075217Y-94811833D01*
X102892261Y-94980257D01*
X102739524Y-95176493D01*
X102621172Y-95395188D01*
X102621169Y-95395197D01*
X102540429Y-95630383D01*
X102499500Y-95875665D01*
X102499500Y-96124334D01*
X100000500Y-96124334D01*
X100000500Y-54124334D01*
X102499500Y-54124334D01*
X102540429Y-54369616D01*
X102621169Y-54604802D01*
X102621172Y-54604811D01*
X102739524Y-54823506D01*
X102739526Y-54823509D01*
X102892262Y-55019744D01*
X103051744Y-55166557D01*
X103075217Y-55188166D01*
X103283393Y-55324173D01*
X103511118Y-55424063D01*
X103752175Y-55485107D01*
X103752179Y-55485108D01*
X103752181Y-55485108D01*
X103752186Y-55485109D01*
X103885376Y-55496145D01*
X103937933Y-55500500D01*
X103937935Y-55500500D01*
X104062065Y-55500500D01*
X104062067Y-55500500D01*
X104123284Y-55495427D01*
X104247813Y-55485109D01*
X104247816Y-55485108D01*
X104247821Y-55485108D01*
X104488881Y-55424063D01*
X104716607Y-55324173D01*
X104924785Y-55188164D01*
X105107738Y-55019744D01*
X105260474Y-54823509D01*
X105378828Y-54604810D01*
X105459571Y-54369614D01*
X105500500Y-54124335D01*
X105500500Y-53875665D01*
X105459571Y-53630386D01*
X105378828Y-53395190D01*
X105260474Y-53176491D01*
X105107738Y-52980256D01*
X104924785Y-52811836D01*
X104924782Y-52811833D01*
X104716606Y-52675826D01*
X104488881Y-52575936D01*
X104247824Y-52514892D01*
X104247813Y-52514890D01*
X104082548Y-52501197D01*
X104062067Y-52499500D01*
X103937933Y-52499500D01*
X103918521Y-52501108D01*
X103752186Y-52514890D01*
X103752175Y-52514892D01*
X103511118Y-52575936D01*
X103283393Y-52675826D01*
X103075217Y-52811833D01*
X102892261Y-52980257D01*
X102739524Y-53176493D01*
X102621172Y-53395188D01*
X102621169Y-53395197D01*
X102540429Y-53630383D01*
X102499500Y-53875665D01*
X102499500Y-54124334D01*
X100000500Y-54124334D01*
X100000500Y-50124500D01*
X100020185Y-50057461D01*
X100072989Y-50011706D01*
X100124500Y-50000500D01*
X107876000Y-50000500D01*
X107943039Y-50020185D01*
G37*
%TD.AperFunction*%
%TD*%
%TA.AperFunction,Conductor*%
%TO.N,GND*%
G36*
X199942539Y-50020185D02*
G01*
X199988294Y-50072989D01*
X199999500Y-50124500D01*
X199999500Y-99875500D01*
X199979815Y-99942539D01*
X199927011Y-99988294D01*
X199875500Y-99999500D01*
X192124000Y-99999500D01*
X192056961Y-99979815D01*
X192011206Y-99927011D01*
X192000000Y-99875500D01*
X192000000Y-96124334D01*
X194499500Y-96124334D01*
X194540429Y-96369616D01*
X194621169Y-96604802D01*
X194621172Y-96604811D01*
X194739524Y-96823506D01*
X194739526Y-96823509D01*
X194892262Y-97019744D01*
X195051744Y-97166557D01*
X195075217Y-97188166D01*
X195283393Y-97324173D01*
X195511118Y-97424063D01*
X195752175Y-97485107D01*
X195752179Y-97485108D01*
X195752181Y-97485108D01*
X195752186Y-97485109D01*
X195885376Y-97496145D01*
X195937933Y-97500500D01*
X195937935Y-97500500D01*
X196062065Y-97500500D01*
X196062067Y-97500500D01*
X196123284Y-97495427D01*
X196247813Y-97485109D01*
X196247816Y-97485108D01*
X196247821Y-97485108D01*
X196488881Y-97424063D01*
X196716607Y-97324173D01*
X196924785Y-97188164D01*
X197107738Y-97019744D01*
X197260474Y-96823509D01*
X197378828Y-96604810D01*
X197459571Y-96369614D01*
X197500500Y-96124335D01*
X197500500Y-95875665D01*
X197459571Y-95630386D01*
X197378828Y-95395190D01*
X197260474Y-95176491D01*
X197107738Y-94980256D01*
X196924785Y-94811836D01*
X196924782Y-94811833D01*
X196716606Y-94675826D01*
X196488881Y-94575936D01*
X196247824Y-94514892D01*
X196247813Y-94514890D01*
X196082548Y-94501197D01*
X196062067Y-94499500D01*
X195937933Y-94499500D01*
X195918521Y-94501108D01*
X195752186Y-94514890D01*
X195752175Y-94514892D01*
X195511118Y-94575936D01*
X195283393Y-94675826D01*
X195075217Y-94811833D01*
X194892261Y-94980257D01*
X194739524Y-95176493D01*
X194621172Y-95395188D01*
X194621169Y-95395197D01*
X194540429Y-95630383D01*
X194499500Y-95875665D01*
X194499500Y-96124334D01*
X192000000Y-96124334D01*
X192000000Y-54124334D01*
X194499500Y-54124334D01*
X194540429Y-54369616D01*
X194621169Y-54604802D01*
X194621172Y-54604811D01*
X194739524Y-54823506D01*
X194739526Y-54823509D01*
X194892262Y-55019744D01*
X195051744Y-55166557D01*
X195075217Y-55188166D01*
X195283393Y-55324173D01*
X195511118Y-55424063D01*
X195752175Y-55485107D01*
X195752179Y-55485108D01*
X195752181Y-55485108D01*
X195752186Y-55485109D01*
X195885376Y-55496145D01*
X195937933Y-55500500D01*
X195937935Y-55500500D01*
X196062065Y-55500500D01*
X196062067Y-55500500D01*
X196123284Y-55495427D01*
X196247813Y-55485109D01*
X196247816Y-55485108D01*
X196247821Y-55485108D01*
X196488881Y-55424063D01*
X196716607Y-55324173D01*
X196924785Y-55188164D01*
X197107738Y-55019744D01*
X197260474Y-54823509D01*
X197378828Y-54604810D01*
X197459571Y-54369614D01*
X197500500Y-54124335D01*
X197500500Y-53875665D01*
X197459571Y-53630386D01*
X197378828Y-53395190D01*
X197260474Y-53176491D01*
X197107738Y-52980256D01*
X196924785Y-52811836D01*
X196924782Y-52811833D01*
X196716606Y-52675826D01*
X196488881Y-52575936D01*
X196247824Y-52514892D01*
X196247813Y-52514890D01*
X196082548Y-52501197D01*
X196062067Y-52499500D01*
X195937933Y-52499500D01*
X195918521Y-52501108D01*
X195752186Y-52514890D01*
X195752175Y-52514892D01*
X195511118Y-52575936D01*
X195283393Y-52675826D01*
X195075217Y-52811833D01*
X194892261Y-52980257D01*
X194739524Y-53176493D01*
X194621172Y-53395188D01*
X194621169Y-53395197D01*
X194540429Y-53630383D01*
X194499500Y-53875665D01*
X194499500Y-54124334D01*
X192000000Y-54124334D01*
X192000000Y-50124500D01*
X192019685Y-50057461D01*
X192072489Y-50011706D01*
X192124000Y-50000500D01*
X199875500Y-50000500D01*
X199942539Y-50020185D01*
G37*
%TD.AperFunction*%
%TD*%
M02*
