%TF.GenerationSoftware,KiCad,Pcbnew,7.0.7*%
%TF.CreationDate,2023-11-02T13:25:28-04:00*%
%TF.ProjectId,TEJ4M-Unit-4-08,54454a34-4d2d-4556-9e69-742d342d3038,rev?*%
%TF.SameCoordinates,Original*%
%TF.FileFunction,Copper,L1,Top*%
%TF.FilePolarity,Positive*%
%FSLAX46Y46*%
G04 Gerber Fmt 4.6, Leading zero omitted, Abs format (unit mm)*
G04 Created by KiCad (PCBNEW 7.0.7) date 2023-11-02 13:25:28*
%MOMM*%
%LPD*%
G01*
G04 APERTURE LIST*
%ADD10C,0.300000*%
%TA.AperFunction,NonConductor*%
%ADD11C,0.300000*%
%TD*%
%TA.AperFunction,ComponentPad*%
%ADD12R,1.000000X1.000000*%
%TD*%
%TA.AperFunction,ComponentPad*%
%ADD13O,1.000000X1.000000*%
%TD*%
%TA.AperFunction,ComponentPad*%
%ADD14R,1.600000X1.600000*%
%TD*%
%TA.AperFunction,ComponentPad*%
%ADD15O,1.600000X1.600000*%
%TD*%
%TA.AperFunction,ComponentPad*%
%ADD16C,2.000000*%
%TD*%
%TA.AperFunction,ComponentPad*%
%ADD17C,1.600000*%
%TD*%
%TA.AperFunction,ComponentPad*%
%ADD18R,1.800000X1.800000*%
%TD*%
%TA.AperFunction,ComponentPad*%
%ADD19C,1.800000*%
%TD*%
%TA.AperFunction,ViaPad*%
%ADD20C,0.800000*%
%TD*%
%TA.AperFunction,Conductor*%
%ADD21C,0.250000*%
%TD*%
G04 APERTURE END LIST*
D10*
D11*
X198627742Y-64840225D02*
X198699171Y-64697368D01*
X198699171Y-64697368D02*
X198699171Y-64483082D01*
X198699171Y-64483082D02*
X198627742Y-64268796D01*
X198627742Y-64268796D02*
X198484885Y-64125939D01*
X198484885Y-64125939D02*
X198342028Y-64054510D01*
X198342028Y-64054510D02*
X198056314Y-63983082D01*
X198056314Y-63983082D02*
X197842028Y-63983082D01*
X197842028Y-63983082D02*
X197556314Y-64054510D01*
X197556314Y-64054510D02*
X197413457Y-64125939D01*
X197413457Y-64125939D02*
X197270600Y-64268796D01*
X197270600Y-64268796D02*
X197199171Y-64483082D01*
X197199171Y-64483082D02*
X197199171Y-64625939D01*
X197199171Y-64625939D02*
X197270600Y-64840225D01*
X197270600Y-64840225D02*
X197342028Y-64911653D01*
X197342028Y-64911653D02*
X197842028Y-64911653D01*
X197842028Y-64911653D02*
X197842028Y-64625939D01*
X197199171Y-65554510D02*
X198699171Y-65554510D01*
X198699171Y-65554510D02*
X197199171Y-66411653D01*
X197199171Y-66411653D02*
X198699171Y-66411653D01*
X197199171Y-67125939D02*
X198699171Y-67125939D01*
X198699171Y-67125939D02*
X198699171Y-67483082D01*
X198699171Y-67483082D02*
X198627742Y-67697368D01*
X198627742Y-67697368D02*
X198484885Y-67840225D01*
X198484885Y-67840225D02*
X198342028Y-67911654D01*
X198342028Y-67911654D02*
X198056314Y-67983082D01*
X198056314Y-67983082D02*
X197842028Y-67983082D01*
X197842028Y-67983082D02*
X197556314Y-67911654D01*
X197556314Y-67911654D02*
X197413457Y-67840225D01*
X197413457Y-67840225D02*
X197270600Y-67697368D01*
X197270600Y-67697368D02*
X197199171Y-67483082D01*
X197199171Y-67483082D02*
X197199171Y-67125939D01*
D10*
D11*
X100872257Y-63659774D02*
X100800828Y-63802632D01*
X100800828Y-63802632D02*
X100800828Y-64016917D01*
X100800828Y-64016917D02*
X100872257Y-64231203D01*
X100872257Y-64231203D02*
X101015114Y-64374060D01*
X101015114Y-64374060D02*
X101157971Y-64445489D01*
X101157971Y-64445489D02*
X101443685Y-64516917D01*
X101443685Y-64516917D02*
X101657971Y-64516917D01*
X101657971Y-64516917D02*
X101943685Y-64445489D01*
X101943685Y-64445489D02*
X102086542Y-64374060D01*
X102086542Y-64374060D02*
X102229400Y-64231203D01*
X102229400Y-64231203D02*
X102300828Y-64016917D01*
X102300828Y-64016917D02*
X102300828Y-63874060D01*
X102300828Y-63874060D02*
X102229400Y-63659774D01*
X102229400Y-63659774D02*
X102157971Y-63588346D01*
X102157971Y-63588346D02*
X101657971Y-63588346D01*
X101657971Y-63588346D02*
X101657971Y-63874060D01*
X102300828Y-62945489D02*
X100800828Y-62945489D01*
X100800828Y-62945489D02*
X102300828Y-62088346D01*
X102300828Y-62088346D02*
X100800828Y-62088346D01*
X102300828Y-61374060D02*
X100800828Y-61374060D01*
X100800828Y-61374060D02*
X100800828Y-61016917D01*
X100800828Y-61016917D02*
X100872257Y-60802631D01*
X100872257Y-60802631D02*
X101015114Y-60659774D01*
X101015114Y-60659774D02*
X101157971Y-60588345D01*
X101157971Y-60588345D02*
X101443685Y-60516917D01*
X101443685Y-60516917D02*
X101657971Y-60516917D01*
X101657971Y-60516917D02*
X101943685Y-60588345D01*
X101943685Y-60588345D02*
X102086542Y-60659774D01*
X102086542Y-60659774D02*
X102229400Y-60802631D01*
X102229400Y-60802631D02*
X102300828Y-61016917D01*
X102300828Y-61016917D02*
X102300828Y-61374060D01*
D10*
D11*
X100300828Y-88231203D02*
X100300828Y-88945489D01*
X100300828Y-88945489D02*
X101015114Y-89016917D01*
X101015114Y-89016917D02*
X100943685Y-88945489D01*
X100943685Y-88945489D02*
X100872257Y-88802632D01*
X100872257Y-88802632D02*
X100872257Y-88445489D01*
X100872257Y-88445489D02*
X100943685Y-88302632D01*
X100943685Y-88302632D02*
X101015114Y-88231203D01*
X101015114Y-88231203D02*
X101157971Y-88159774D01*
X101157971Y-88159774D02*
X101515114Y-88159774D01*
X101515114Y-88159774D02*
X101657971Y-88231203D01*
X101657971Y-88231203D02*
X101729400Y-88302632D01*
X101729400Y-88302632D02*
X101800828Y-88445489D01*
X101800828Y-88445489D02*
X101800828Y-88802632D01*
X101800828Y-88802632D02*
X101729400Y-88945489D01*
X101729400Y-88945489D02*
X101657971Y-89016917D01*
X100300828Y-87731203D02*
X101800828Y-87231203D01*
X101800828Y-87231203D02*
X100300828Y-86731203D01*
D10*
D11*
X199699171Y-84768796D02*
X199699171Y-84054510D01*
X199699171Y-84054510D02*
X198984885Y-83983082D01*
X198984885Y-83983082D02*
X199056314Y-84054510D01*
X199056314Y-84054510D02*
X199127742Y-84197368D01*
X199127742Y-84197368D02*
X199127742Y-84554510D01*
X199127742Y-84554510D02*
X199056314Y-84697368D01*
X199056314Y-84697368D02*
X198984885Y-84768796D01*
X198984885Y-84768796D02*
X198842028Y-84840225D01*
X198842028Y-84840225D02*
X198484885Y-84840225D01*
X198484885Y-84840225D02*
X198342028Y-84768796D01*
X198342028Y-84768796D02*
X198270600Y-84697368D01*
X198270600Y-84697368D02*
X198199171Y-84554510D01*
X198199171Y-84554510D02*
X198199171Y-84197368D01*
X198199171Y-84197368D02*
X198270600Y-84054510D01*
X198270600Y-84054510D02*
X198342028Y-83983082D01*
X199699171Y-85268796D02*
X198199171Y-85768796D01*
X198199171Y-85768796D02*
X199699171Y-86268796D01*
D12*
%TO.P,J4,1,Pin_1*%
%TO.N,Net-(J4-Pin_1)*%
X195500000Y-64500000D03*
D13*
%TO.P,J4,2,Pin_2*%
%TO.N,Net-(J4-Pin_2)*%
X195500000Y-65770000D03*
%TO.P,J4,3,Pin_3*%
%TO.N,unconnected-(J4-Pin_3-Pad3)*%
X195500000Y-67040000D03*
%TD*%
D12*
%TO.P,J3,1,Pin_1*%
%TO.N,unconnected-(J3-Pin_1-Pad1)*%
X196025000Y-83725000D03*
D13*
%TO.P,J3,2,Pin_2*%
%TO.N,unconnected-(J3-Pin_2-Pad2)*%
X196025000Y-84995000D03*
%TO.P,J3,3,Pin_3*%
%TO.N,unconnected-(J3-Pin_3-Pad3)*%
X196025000Y-86265000D03*
%TD*%
D12*
%TO.P,J2,1,Pin_1*%
%TO.N,Net-(J2-Pin_1)*%
X104000000Y-61500000D03*
D13*
%TO.P,J2,2,Pin_2*%
%TO.N,Net-(J2-Pin_2)*%
X104000000Y-62770000D03*
%TO.P,J2,3,Pin_3*%
%TO.N,unconnected-(J2-Pin_3-Pad3)*%
X104000000Y-64040000D03*
%TD*%
D12*
%TO.P,J1,1,Pin_1*%
%TO.N,Net-(J1-Pin_1)*%
X104000000Y-86460000D03*
D13*
%TO.P,J1,2,Pin_2*%
%TO.N,Net-(J1-Pin_2)*%
X104000000Y-87730000D03*
%TO.P,J1,3,Pin_3*%
%TO.N,unconnected-(J1-Pin_3-Pad3)*%
X104000000Y-89000000D03*
%TD*%
D14*
%TO.P,U7,1*%
%TO.N,Net-(U5-Pad3)*%
X161200000Y-63800000D03*
D15*
%TO.P,U7,2*%
%TO.N,Net-(D4-A)*%
X163740000Y-63800000D03*
%TO.P,U7,3*%
%TO.N,Net-(D3-A)*%
X166280000Y-63800000D03*
%TO.P,U7,4*%
%TO.N,N/C*%
X168820000Y-63800000D03*
%TO.P,U7,5*%
X168820000Y-56180000D03*
%TO.P,U7,6*%
X166280000Y-56180000D03*
%TO.P,U7,7*%
X163740000Y-56180000D03*
%TO.P,U7,8*%
X161200000Y-56180000D03*
%TD*%
D14*
%TO.P,U6,1*%
%TO.N,Net-(D3-A)*%
X161200000Y-88800000D03*
D15*
%TO.P,U6,2*%
%TO.N,Net-(U4-Pad3)*%
X163740000Y-88800000D03*
%TO.P,U6,3*%
%TO.N,Net-(D4-A)*%
X166280000Y-88800000D03*
%TO.P,U6,4*%
%TO.N,N/C*%
X168820000Y-88800000D03*
%TO.P,U6,5*%
X168820000Y-81180000D03*
%TO.P,U6,6*%
X166280000Y-81180000D03*
%TO.P,U6,7*%
X163740000Y-81180000D03*
%TO.P,U6,8*%
X161200000Y-81180000D03*
%TD*%
D14*
%TO.P,U5,1*%
%TO.N,Net-(U3-Pad2)*%
X146200000Y-63800000D03*
D15*
%TO.P,U5,2*%
%TO.N,Net-(R2-Pad1)*%
X148740000Y-63800000D03*
%TO.P,U5,3*%
%TO.N,Net-(U5-Pad3)*%
X151280000Y-63800000D03*
%TO.P,U5,4*%
%TO.N,N/C*%
X153820000Y-63800000D03*
%TO.P,U5,5*%
X153820000Y-56180000D03*
%TO.P,U5,6*%
X151280000Y-56180000D03*
%TO.P,U5,7*%
X148740000Y-56180000D03*
%TO.P,U5,8*%
X146200000Y-56180000D03*
%TD*%
D14*
%TO.P,U4,1*%
%TO.N,Net-(R2-Pad1)*%
X146200000Y-88800000D03*
D15*
%TO.P,U4,2*%
%TO.N,Net-(R1-Pad1)*%
X148740000Y-88800000D03*
%TO.P,U4,3*%
%TO.N,Net-(U4-Pad3)*%
X151280000Y-88800000D03*
%TO.P,U4,4*%
%TO.N,N/C*%
X153820000Y-88800000D03*
%TO.P,U4,5*%
X153820000Y-81180000D03*
%TO.P,U4,6*%
X151280000Y-81180000D03*
%TO.P,U4,7*%
X148740000Y-81180000D03*
%TO.P,U4,8*%
X146200000Y-81180000D03*
%TD*%
D14*
%TO.P,U3,1*%
%TO.N,Net-(R1-Pad1)*%
X131200000Y-63800000D03*
D15*
%TO.P,U3,2*%
%TO.N,Net-(U3-Pad2)*%
X133740000Y-63800000D03*
%TO.P,U3,3*%
%TO.N,N/C*%
X136280000Y-63800000D03*
%TO.P,U3,4*%
X138820000Y-63800000D03*
%TO.P,U3,5*%
X138820000Y-56180000D03*
%TO.P,U3,6*%
X136280000Y-56180000D03*
%TO.P,U3,7*%
X133740000Y-56180000D03*
%TO.P,U3,8*%
X131200000Y-56180000D03*
%TD*%
D16*
%TO.P,U2,1*%
%TO.N,Net-(J1-Pin_2)*%
X111750000Y-81750000D03*
X111750000Y-88250000D03*
%TO.P,U2,2*%
%TO.N,Net-(R2-Pad1)*%
X116250000Y-81750000D03*
X116250000Y-88250000D03*
%TD*%
%TO.P,U1,1*%
%TO.N,Net-(J1-Pin_1)*%
X111750000Y-61750000D03*
X111750000Y-68250000D03*
%TO.P,U1,2*%
%TO.N,Net-(R1-Pad1)*%
X116250000Y-61750000D03*
X116250000Y-68250000D03*
%TD*%
D15*
%TO.P,R4,2*%
%TO.N,Net-(J4-Pin_2)*%
X188810000Y-95000000D03*
D17*
%TO.P,R4,1*%
%TO.N,Net-(D4-K)*%
X181190000Y-95000000D03*
%TD*%
%TO.P,R3,1*%
%TO.N,Net-(D3-K)*%
X181190000Y-55000000D03*
D15*
%TO.P,R3,2*%
%TO.N,Net-(J4-Pin_1)*%
X188810000Y-55000000D03*
%TD*%
D17*
%TO.P,R2,1*%
%TO.N,Net-(R2-Pad1)*%
X116190000Y-95000000D03*
D15*
%TO.P,R2,2*%
%TO.N,Net-(J2-Pin_2)*%
X123810000Y-95000000D03*
%TD*%
D17*
%TO.P,R1,1*%
%TO.N,Net-(R1-Pad1)*%
X116190000Y-55000000D03*
D15*
%TO.P,R1,2*%
%TO.N,Net-(J2-Pin_1)*%
X123810000Y-55000000D03*
%TD*%
D18*
%TO.P,D4,1,K*%
%TO.N,Net-(D4-K)*%
X183175000Y-86250000D03*
D19*
%TO.P,D4,2,A*%
%TO.N,Net-(D4-A)*%
X183175000Y-83710000D03*
%TD*%
D18*
%TO.P,D3,1,K*%
%TO.N,Net-(D3-K)*%
X183175000Y-66250000D03*
D19*
%TO.P,D3,2,A*%
%TO.N,Net-(D3-A)*%
X183175000Y-63710000D03*
%TD*%
D20*
%TO.N,Net-(J2-Pin_2)*%
X104500000Y-70000000D03*
X107500000Y-89500000D03*
%TO.N,Net-(D3-A)*%
X181000000Y-64000000D03*
X177000000Y-64000000D03*
%TO.N,Net-(D4-A)*%
X163000000Y-69000000D03*
X165000000Y-71000000D03*
%TO.N,Net-(R2-Pad1)*%
X127000000Y-89000000D03*
X125000000Y-91000000D03*
%TD*%
D21*
%TO.N,Net-(J4-Pin_2)*%
X188810000Y-95000000D02*
X188810000Y-72460000D01*
X188810000Y-72460000D02*
X195500000Y-65770000D01*
%TO.N,Net-(J4-Pin_1)*%
X188810000Y-57810000D02*
X195500000Y-64500000D01*
X188810000Y-55000000D02*
X188810000Y-57810000D01*
%TO.N,Net-(J2-Pin_2)*%
X103175000Y-63595000D02*
X104000000Y-62770000D01*
X103175000Y-68675000D02*
X103175000Y-63595000D01*
X104500000Y-70000000D02*
X103175000Y-68675000D01*
X122685000Y-96125000D02*
X114125000Y-96125000D01*
X123810000Y-95000000D02*
X122685000Y-96125000D01*
X114125000Y-96125000D02*
X107500000Y-89500000D01*
%TO.N,Net-(J2-Pin_1)*%
X111625000Y-53875000D02*
X104000000Y-61500000D01*
X122685000Y-53875000D02*
X111625000Y-53875000D01*
X123810000Y-55000000D02*
X122685000Y-53875000D01*
%TO.N,Net-(J1-Pin_1)*%
X104000000Y-76000000D02*
X104000000Y-86460000D01*
X111750000Y-68250000D02*
X104000000Y-76000000D01*
%TO.N,Net-(J1-Pin_2)*%
X104520000Y-88250000D02*
X104000000Y-87730000D01*
X111750000Y-88250000D02*
X104520000Y-88250000D01*
%TO.N,Net-(J1-Pin_1)*%
X111750000Y-68250000D02*
X111750000Y-61750000D01*
%TO.N,Net-(J1-Pin_2)*%
X111750000Y-81750000D02*
X111750000Y-88250000D01*
%TO.N,Net-(R2-Pad1)*%
X116250000Y-88250000D02*
X116250000Y-81750000D01*
%TO.N,Net-(R1-Pad1)*%
X116250000Y-68250000D02*
X116250000Y-61750000D01*
%TO.N,Net-(D3-A)*%
X181000000Y-64000000D02*
X182885000Y-64000000D01*
X182885000Y-64000000D02*
X183175000Y-63710000D01*
X174000000Y-64000000D02*
X177000000Y-64000000D01*
X172000000Y-66000000D02*
X174000000Y-64000000D01*
X167000000Y-66000000D02*
X172000000Y-66000000D01*
X166280000Y-65280000D02*
X167000000Y-66000000D01*
X166280000Y-63800000D02*
X166280000Y-65280000D01*
%TO.N,Net-(D3-K)*%
X180000000Y-55000000D02*
X181190000Y-55000000D01*
X180250000Y-66250000D02*
X179000000Y-65000000D01*
X179000000Y-65000000D02*
X179000000Y-56000000D01*
X179000000Y-56000000D02*
X180000000Y-55000000D01*
X183175000Y-66250000D02*
X180250000Y-66250000D01*
%TO.N,Net-(D4-A)*%
X175885000Y-91000000D02*
X171000000Y-91000000D01*
X183175000Y-83710000D02*
X175885000Y-91000000D01*
%TO.N,Net-(D4-K)*%
X181190000Y-88235000D02*
X183175000Y-86250000D01*
X181190000Y-95000000D02*
X181190000Y-88235000D01*
%TO.N,Net-(D4-A)*%
X163740000Y-66260000D02*
X163740000Y-63800000D01*
X163000000Y-69000000D02*
X163000000Y-67000000D01*
X163000000Y-67000000D02*
X163740000Y-66260000D01*
X171000000Y-91000000D02*
X172000000Y-90000000D01*
X167000000Y-91000000D02*
X171000000Y-91000000D01*
X172000000Y-78000000D02*
X165000000Y-71000000D01*
X166280000Y-90280000D02*
X167000000Y-91000000D01*
X172000000Y-90000000D02*
X172000000Y-78000000D01*
X166280000Y-88800000D02*
X166280000Y-90280000D01*
%TO.N,Net-(D3-A)*%
X166280000Y-67720000D02*
X166280000Y-63800000D01*
X159000000Y-75000000D02*
X166280000Y-67720000D01*
X159800000Y-88800000D02*
X159000000Y-88000000D01*
X161200000Y-88800000D02*
X159800000Y-88800000D01*
X159000000Y-88000000D02*
X159000000Y-75000000D01*
%TO.N,Net-(U4-Pad3)*%
X152000000Y-91000000D02*
X163000000Y-91000000D01*
X151280000Y-90280000D02*
X152000000Y-91000000D01*
X151280000Y-88800000D02*
X151280000Y-90280000D01*
X163000000Y-91000000D02*
X163740000Y-90260000D01*
X163740000Y-90260000D02*
X163740000Y-88800000D01*
%TO.N,Net-(U5-Pad3)*%
X160000000Y-66000000D02*
X161200000Y-64800000D01*
X152000000Y-66000000D02*
X160000000Y-66000000D01*
X151280000Y-65280000D02*
X152000000Y-66000000D01*
X161200000Y-64800000D02*
X161200000Y-63800000D01*
X151280000Y-63800000D02*
X151280000Y-65280000D01*
%TO.N,Net-(U3-Pad2)*%
X146200000Y-65800000D02*
X146200000Y-63800000D01*
X145000000Y-67000000D02*
X146200000Y-65800000D01*
X133740000Y-65740000D02*
X135000000Y-67000000D01*
X133740000Y-63800000D02*
X133740000Y-65740000D01*
X135000000Y-67000000D02*
X145000000Y-67000000D01*
%TO.N,Net-(R1-Pad1)*%
X125000000Y-89000000D02*
X128000000Y-92000000D01*
X125000000Y-64000000D02*
X125000000Y-89000000D01*
X128000000Y-92000000D02*
X145540000Y-92000000D01*
X145540000Y-92000000D02*
X148740000Y-88800000D01*
X122750000Y-61750000D02*
X125000000Y-64000000D01*
%TO.N,Net-(R2-Pad1)*%
X148740000Y-67260000D02*
X148740000Y-63800000D01*
X127000000Y-89000000D02*
X148740000Y-67260000D01*
X145000000Y-90000000D02*
X146200000Y-88800000D01*
X128000000Y-90000000D02*
X145000000Y-90000000D01*
X127000000Y-89000000D02*
X128000000Y-90000000D01*
X122250000Y-88250000D02*
X125000000Y-91000000D01*
X116250000Y-88250000D02*
X122250000Y-88250000D01*
%TO.N,Net-(R1-Pad1)*%
X122750000Y-61750000D02*
X124800000Y-63800000D01*
X116250000Y-61750000D02*
X122750000Y-61750000D01*
X124800000Y-63800000D02*
X131200000Y-63800000D01*
%TO.N,Net-(R2-Pad1)*%
X116190000Y-95000000D02*
X116190000Y-88310000D01*
X116190000Y-88310000D02*
X116250000Y-88250000D01*
%TO.N,Net-(R1-Pad1)*%
X116190000Y-61690000D02*
X116250000Y-61750000D01*
X116190000Y-55000000D02*
X116190000Y-61690000D01*
%TD*%
M02*
