M48
; DRILL file {KiCad 7.0.7} date Thu Nov  2 13:25:30 2023
; FORMAT={-:-/ absolute / inch / decimal}
; #@! TF.CreationDate,2023-11-02T13:25:30-04:00
; #@! TF.GenerationSoftware,Kicad,Pcbnew,7.0.7
; #@! TF.FileFunction,Plated,1,2,PTH
FMAT,2
INCH
; #@! TA.AperFunction,Plated,PTH,ViaDrill
T1C0.0157
; #@! TA.AperFunction,Plated,PTH,ComponentDrill
T2C0.0276
; #@! TA.AperFunction,Plated,PTH,ComponentDrill
T3C0.0315
; #@! TA.AperFunction,Plated,PTH,ComponentDrill
T4C0.0354
; #@! TA.AperFunction,Plated,PTH,ComponentDrill
T5C0.0433
%
G90
G05
T1
X4.1142Y-2.7559
X4.2323Y-3.5236
X4.9213Y-3.5827
X5.0Y-3.5039
X6.4173Y-2.7165
X6.4961Y-2.7953
X6.9685Y-2.5197
X7.126Y-2.5197
T2
X4.0945Y-2.4213
X4.0945Y-2.4713
X4.0945Y-2.5213
X4.0945Y-3.4039
X4.0945Y-3.4539
X4.0945Y-3.5039
X7.6969Y-2.5394
X7.6969Y-2.5894
X7.6969Y-2.6394
X7.7175Y-3.2963
X7.7175Y-3.3463
X7.7175Y-3.3963
T3
X4.5744Y-2.1654
X4.5744Y-3.7402
X4.8744Y-2.1654
X4.8744Y-3.7402
X5.1654Y-2.2118
X5.1654Y-2.5118
X5.2654Y-2.2118
X5.2654Y-2.5118
X5.3654Y-2.2118
X5.3654Y-2.5118
X5.4654Y-2.2118
X5.4654Y-2.5118
X5.7559Y-2.2118
X5.7559Y-2.5118
X5.7559Y-3.1961
X5.7559Y-3.4961
X5.8559Y-2.2118
X5.8559Y-2.5118
X5.8559Y-3.1961
X5.8559Y-3.4961
X5.9559Y-2.2118
X5.9559Y-2.5118
X5.9559Y-3.1961
X5.9559Y-3.4961
X6.0559Y-2.2118
X6.0559Y-2.5118
X6.0559Y-3.1961
X6.0559Y-3.4961
X6.3465Y-2.2118
X6.3465Y-2.5118
X6.3465Y-3.1961
X6.3465Y-3.4961
X6.4465Y-2.2118
X6.4465Y-2.5118
X6.4465Y-3.1961
X6.4465Y-3.4961
X6.5465Y-2.2118
X6.5465Y-2.5118
X6.5465Y-3.1961
X6.5465Y-3.4961
X6.6465Y-2.2118
X6.6465Y-2.5118
X6.6465Y-3.1961
X6.6465Y-3.4961
X7.1335Y-2.1654
X7.1335Y-3.7402
X7.4335Y-2.1654
X7.4335Y-3.7402
T4
X7.2116Y-2.5083
X7.2116Y-2.6083
X7.2116Y-3.2957
X7.2116Y-3.3957
T5
X4.3996Y-2.4311
X4.3996Y-2.687
X4.3996Y-3.2185
X4.3996Y-3.4744
X4.5768Y-2.4311
X4.5768Y-2.687
X4.5768Y-3.2185
X4.5768Y-3.4744
T0
M30
