%TF.GenerationSoftware,KiCad,Pcbnew,7.0.7*%
%TF.CreationDate,2023-11-02T13:25:28-04:00*%
%TF.ProjectId,TEJ4M-Unit-4-08,54454a34-4d2d-4556-9e69-742d342d3038,rev?*%
%TF.SameCoordinates,Original*%
%TF.FileFunction,Copper,L2,Bot*%
%TF.FilePolarity,Positive*%
%FSLAX46Y46*%
G04 Gerber Fmt 4.6, Leading zero omitted, Abs format (unit mm)*
G04 Created by KiCad (PCBNEW 7.0.7) date 2023-11-02 13:25:28*
%MOMM*%
%LPD*%
G01*
G04 APERTURE LIST*
%ADD10C,0.400000*%
%TA.AperFunction,NonConductor*%
%ADD11C,0.400000*%
%TD*%
%TA.AperFunction,ComponentPad*%
%ADD12R,1.000000X1.000000*%
%TD*%
%TA.AperFunction,ComponentPad*%
%ADD13O,1.000000X1.000000*%
%TD*%
%TA.AperFunction,ComponentPad*%
%ADD14R,1.600000X1.600000*%
%TD*%
%TA.AperFunction,ComponentPad*%
%ADD15O,1.600000X1.600000*%
%TD*%
%TA.AperFunction,ComponentPad*%
%ADD16C,2.000000*%
%TD*%
%TA.AperFunction,ComponentPad*%
%ADD17C,1.600000*%
%TD*%
%TA.AperFunction,ComponentPad*%
%ADD18R,1.800000X1.800000*%
%TD*%
%TA.AperFunction,ComponentPad*%
%ADD19C,1.800000*%
%TD*%
%TA.AperFunction,ViaPad*%
%ADD20C,0.800000*%
%TD*%
%TA.AperFunction,Conductor*%
%ADD21C,0.250000*%
%TD*%
G04 APERTURE END LIST*
D10*
D11*
X128310776Y-68291104D02*
X128072680Y-68529200D01*
X128072680Y-68529200D02*
X127358395Y-68767295D01*
X127358395Y-68767295D02*
X126882204Y-68767295D01*
X126882204Y-68767295D02*
X126167918Y-68529200D01*
X126167918Y-68529200D02*
X125691728Y-68053009D01*
X125691728Y-68053009D02*
X125453633Y-67576819D01*
X125453633Y-67576819D02*
X125215537Y-66624438D01*
X125215537Y-66624438D02*
X125215537Y-65910152D01*
X125215537Y-65910152D02*
X125453633Y-64957771D01*
X125453633Y-64957771D02*
X125691728Y-64481580D01*
X125691728Y-64481580D02*
X126167918Y-64005390D01*
X126167918Y-64005390D02*
X126882204Y-63767295D01*
X126882204Y-63767295D02*
X127358395Y-63767295D01*
X127358395Y-63767295D02*
X128072680Y-64005390D01*
X128072680Y-64005390D02*
X128310776Y-64243485D01*
X132596490Y-65433961D02*
X132596490Y-68767295D01*
X130453633Y-65433961D02*
X130453633Y-68053009D01*
X130453633Y-68053009D02*
X130691728Y-68529200D01*
X130691728Y-68529200D02*
X131167918Y-68767295D01*
X131167918Y-68767295D02*
X131882204Y-68767295D01*
X131882204Y-68767295D02*
X132358395Y-68529200D01*
X132358395Y-68529200D02*
X132596490Y-68291104D01*
X134977443Y-68767295D02*
X134977443Y-65433961D01*
X134977443Y-66386342D02*
X135215538Y-65910152D01*
X135215538Y-65910152D02*
X135453633Y-65672057D01*
X135453633Y-65672057D02*
X135929824Y-65433961D01*
X135929824Y-65433961D02*
X136406014Y-65433961D01*
X137358395Y-65433961D02*
X139263157Y-65433961D01*
X138072681Y-63767295D02*
X138072681Y-68053009D01*
X138072681Y-68053009D02*
X138310776Y-68529200D01*
X138310776Y-68529200D02*
X138786966Y-68767295D01*
X138786966Y-68767295D02*
X139263157Y-68767295D01*
X140929824Y-68767295D02*
X140929824Y-65433961D01*
X140929824Y-63767295D02*
X140691728Y-64005390D01*
X140691728Y-64005390D02*
X140929824Y-64243485D01*
X140929824Y-64243485D02*
X141167919Y-64005390D01*
X141167919Y-64005390D02*
X140929824Y-63767295D01*
X140929824Y-63767295D02*
X140929824Y-64243485D01*
X143072680Y-68529200D02*
X143548871Y-68767295D01*
X143548871Y-68767295D02*
X144501252Y-68767295D01*
X144501252Y-68767295D02*
X144977442Y-68529200D01*
X144977442Y-68529200D02*
X145215538Y-68053009D01*
X145215538Y-68053009D02*
X145215538Y-67814914D01*
X145215538Y-67814914D02*
X144977442Y-67338723D01*
X144977442Y-67338723D02*
X144501252Y-67100628D01*
X144501252Y-67100628D02*
X143786966Y-67100628D01*
X143786966Y-67100628D02*
X143310776Y-66862533D01*
X143310776Y-66862533D02*
X143072680Y-66386342D01*
X143072680Y-66386342D02*
X143072680Y-66148247D01*
X143072680Y-66148247D02*
X143310776Y-65672057D01*
X143310776Y-65672057D02*
X143786966Y-65433961D01*
X143786966Y-65433961D02*
X144501252Y-65433961D01*
X144501252Y-65433961D02*
X144977442Y-65672057D01*
X151167919Y-66148247D02*
X152834585Y-66148247D01*
X153548871Y-68767295D02*
X151167919Y-68767295D01*
X151167919Y-68767295D02*
X151167919Y-63767295D01*
X151167919Y-63767295D02*
X153548871Y-63767295D01*
X157834586Y-68767295D02*
X157834586Y-63767295D01*
X157834586Y-68529200D02*
X157358395Y-68767295D01*
X157358395Y-68767295D02*
X156406014Y-68767295D01*
X156406014Y-68767295D02*
X155929824Y-68529200D01*
X155929824Y-68529200D02*
X155691729Y-68291104D01*
X155691729Y-68291104D02*
X155453633Y-67814914D01*
X155453633Y-67814914D02*
X155453633Y-66386342D01*
X155453633Y-66386342D02*
X155691729Y-65910152D01*
X155691729Y-65910152D02*
X155929824Y-65672057D01*
X155929824Y-65672057D02*
X156406014Y-65433961D01*
X156406014Y-65433961D02*
X157358395Y-65433961D01*
X157358395Y-65433961D02*
X157834586Y-65672057D01*
X159739348Y-65433961D02*
X160691729Y-68767295D01*
X160691729Y-68767295D02*
X161644110Y-66386342D01*
X161644110Y-66386342D02*
X162596491Y-68767295D01*
X162596491Y-68767295D02*
X163548872Y-65433961D01*
X167596491Y-68767295D02*
X167596491Y-66148247D01*
X167596491Y-66148247D02*
X167358396Y-65672057D01*
X167358396Y-65672057D02*
X166882205Y-65433961D01*
X166882205Y-65433961D02*
X165929824Y-65433961D01*
X165929824Y-65433961D02*
X165453634Y-65672057D01*
X167596491Y-68529200D02*
X167120300Y-68767295D01*
X167120300Y-68767295D02*
X165929824Y-68767295D01*
X165929824Y-68767295D02*
X165453634Y-68529200D01*
X165453634Y-68529200D02*
X165215538Y-68053009D01*
X165215538Y-68053009D02*
X165215538Y-67576819D01*
X165215538Y-67576819D02*
X165453634Y-67100628D01*
X165453634Y-67100628D02*
X165929824Y-66862533D01*
X165929824Y-66862533D02*
X167120300Y-66862533D01*
X167120300Y-66862533D02*
X167596491Y-66624438D01*
X169977444Y-68767295D02*
X169977444Y-65433961D01*
X169977444Y-66386342D02*
X170215539Y-65910152D01*
X170215539Y-65910152D02*
X170453634Y-65672057D01*
X170453634Y-65672057D02*
X170929825Y-65433961D01*
X170929825Y-65433961D02*
X171406015Y-65433961D01*
X175215539Y-68767295D02*
X175215539Y-63767295D01*
X175215539Y-68529200D02*
X174739348Y-68767295D01*
X174739348Y-68767295D02*
X173786967Y-68767295D01*
X173786967Y-68767295D02*
X173310777Y-68529200D01*
X173310777Y-68529200D02*
X173072682Y-68291104D01*
X173072682Y-68291104D02*
X172834586Y-67814914D01*
X172834586Y-67814914D02*
X172834586Y-66386342D01*
X172834586Y-66386342D02*
X173072682Y-65910152D01*
X173072682Y-65910152D02*
X173310777Y-65672057D01*
X173310777Y-65672057D02*
X173786967Y-65433961D01*
X173786967Y-65433961D02*
X174739348Y-65433961D01*
X174739348Y-65433961D02*
X175215539Y-65672057D01*
X177358396Y-68529200D02*
X177834587Y-68767295D01*
X177834587Y-68767295D02*
X178786968Y-68767295D01*
X178786968Y-68767295D02*
X179263158Y-68529200D01*
X179263158Y-68529200D02*
X179501254Y-68053009D01*
X179501254Y-68053009D02*
X179501254Y-67814914D01*
X179501254Y-67814914D02*
X179263158Y-67338723D01*
X179263158Y-67338723D02*
X178786968Y-67100628D01*
X178786968Y-67100628D02*
X178072682Y-67100628D01*
X178072682Y-67100628D02*
X177596492Y-66862533D01*
X177596492Y-66862533D02*
X177358396Y-66386342D01*
X177358396Y-66386342D02*
X177358396Y-66148247D01*
X177358396Y-66148247D02*
X177596492Y-65672057D01*
X177596492Y-65672057D02*
X178072682Y-65433961D01*
X178072682Y-65433961D02*
X178786968Y-65433961D01*
X178786968Y-65433961D02*
X179263158Y-65672057D01*
X124739347Y-71817295D02*
X127596490Y-71817295D01*
X126167918Y-76817295D02*
X126167918Y-71817295D01*
X129263157Y-74198247D02*
X130929823Y-74198247D01*
X131644109Y-76817295D02*
X129263157Y-76817295D01*
X129263157Y-76817295D02*
X129263157Y-71817295D01*
X129263157Y-71817295D02*
X131644109Y-71817295D01*
X135215538Y-71817295D02*
X135215538Y-75388723D01*
X135215538Y-75388723D02*
X134977443Y-76103009D01*
X134977443Y-76103009D02*
X134501252Y-76579200D01*
X134501252Y-76579200D02*
X133786967Y-76817295D01*
X133786967Y-76817295D02*
X133310776Y-76817295D01*
X139739348Y-73483961D02*
X139739348Y-76817295D01*
X138548872Y-71579200D02*
X137358395Y-75150628D01*
X137358395Y-75150628D02*
X140453634Y-75150628D01*
X142358396Y-76817295D02*
X142358396Y-71817295D01*
X142358396Y-71817295D02*
X144025062Y-75388723D01*
X144025062Y-75388723D02*
X145691729Y-71817295D01*
X145691729Y-71817295D02*
X145691729Y-76817295D01*
X125453633Y-79867295D02*
X125453633Y-83914914D01*
X125453633Y-83914914D02*
X125691728Y-84391104D01*
X125691728Y-84391104D02*
X125929823Y-84629200D01*
X125929823Y-84629200D02*
X126406014Y-84867295D01*
X126406014Y-84867295D02*
X127358395Y-84867295D01*
X127358395Y-84867295D02*
X127834585Y-84629200D01*
X127834585Y-84629200D02*
X128072680Y-84391104D01*
X128072680Y-84391104D02*
X128310776Y-83914914D01*
X128310776Y-83914914D02*
X128310776Y-79867295D01*
X130691728Y-81533961D02*
X130691728Y-84867295D01*
X130691728Y-82010152D02*
X130929823Y-81772057D01*
X130929823Y-81772057D02*
X131406013Y-81533961D01*
X131406013Y-81533961D02*
X132120299Y-81533961D01*
X132120299Y-81533961D02*
X132596490Y-81772057D01*
X132596490Y-81772057D02*
X132834585Y-82248247D01*
X132834585Y-82248247D02*
X132834585Y-84867295D01*
X135215538Y-84867295D02*
X135215538Y-81533961D01*
X135215538Y-79867295D02*
X134977442Y-80105390D01*
X134977442Y-80105390D02*
X135215538Y-80343485D01*
X135215538Y-80343485D02*
X135453633Y-80105390D01*
X135453633Y-80105390D02*
X135215538Y-79867295D01*
X135215538Y-79867295D02*
X135215538Y-80343485D01*
X136882204Y-81533961D02*
X138786966Y-81533961D01*
X137596490Y-79867295D02*
X137596490Y-84153009D01*
X137596490Y-84153009D02*
X137834585Y-84629200D01*
X137834585Y-84629200D02*
X138310775Y-84867295D01*
X138310775Y-84867295D02*
X138786966Y-84867295D01*
X140453633Y-82962533D02*
X144263157Y-82962533D01*
X148786966Y-81533961D02*
X148786966Y-84867295D01*
X147596490Y-79629200D02*
X146406013Y-83200628D01*
X146406013Y-83200628D02*
X149501252Y-83200628D01*
X151406014Y-82962533D02*
X155215538Y-82962533D01*
X158548871Y-79867295D02*
X159025061Y-79867295D01*
X159025061Y-79867295D02*
X159501252Y-80105390D01*
X159501252Y-80105390D02*
X159739347Y-80343485D01*
X159739347Y-80343485D02*
X159977442Y-80819676D01*
X159977442Y-80819676D02*
X160215537Y-81772057D01*
X160215537Y-81772057D02*
X160215537Y-82962533D01*
X160215537Y-82962533D02*
X159977442Y-83914914D01*
X159977442Y-83914914D02*
X159739347Y-84391104D01*
X159739347Y-84391104D02*
X159501252Y-84629200D01*
X159501252Y-84629200D02*
X159025061Y-84867295D01*
X159025061Y-84867295D02*
X158548871Y-84867295D01*
X158548871Y-84867295D02*
X158072680Y-84629200D01*
X158072680Y-84629200D02*
X157834585Y-84391104D01*
X157834585Y-84391104D02*
X157596490Y-83914914D01*
X157596490Y-83914914D02*
X157358394Y-82962533D01*
X157358394Y-82962533D02*
X157358394Y-81772057D01*
X157358394Y-81772057D02*
X157596490Y-80819676D01*
X157596490Y-80819676D02*
X157834585Y-80343485D01*
X157834585Y-80343485D02*
X158072680Y-80105390D01*
X158072680Y-80105390D02*
X158548871Y-79867295D01*
X163072680Y-82010152D02*
X162596490Y-81772057D01*
X162596490Y-81772057D02*
X162358395Y-81533961D01*
X162358395Y-81533961D02*
X162120299Y-81057771D01*
X162120299Y-81057771D02*
X162120299Y-80819676D01*
X162120299Y-80819676D02*
X162358395Y-80343485D01*
X162358395Y-80343485D02*
X162596490Y-80105390D01*
X162596490Y-80105390D02*
X163072680Y-79867295D01*
X163072680Y-79867295D02*
X164025061Y-79867295D01*
X164025061Y-79867295D02*
X164501252Y-80105390D01*
X164501252Y-80105390D02*
X164739347Y-80343485D01*
X164739347Y-80343485D02*
X164977442Y-80819676D01*
X164977442Y-80819676D02*
X164977442Y-81057771D01*
X164977442Y-81057771D02*
X164739347Y-81533961D01*
X164739347Y-81533961D02*
X164501252Y-81772057D01*
X164501252Y-81772057D02*
X164025061Y-82010152D01*
X164025061Y-82010152D02*
X163072680Y-82010152D01*
X163072680Y-82010152D02*
X162596490Y-82248247D01*
X162596490Y-82248247D02*
X162358395Y-82486342D01*
X162358395Y-82486342D02*
X162120299Y-82962533D01*
X162120299Y-82962533D02*
X162120299Y-83914914D01*
X162120299Y-83914914D02*
X162358395Y-84391104D01*
X162358395Y-84391104D02*
X162596490Y-84629200D01*
X162596490Y-84629200D02*
X163072680Y-84867295D01*
X163072680Y-84867295D02*
X164025061Y-84867295D01*
X164025061Y-84867295D02*
X164501252Y-84629200D01*
X164501252Y-84629200D02*
X164739347Y-84391104D01*
X164739347Y-84391104D02*
X164977442Y-83914914D01*
X164977442Y-83914914D02*
X164977442Y-82962533D01*
X164977442Y-82962533D02*
X164739347Y-82486342D01*
X164739347Y-82486342D02*
X164501252Y-82248247D01*
X164501252Y-82248247D02*
X164025061Y-82010152D01*
D12*
%TO.P,J4,1,Pin_1*%
%TO.N,Net-(J4-Pin_1)*%
X195500000Y-64500000D03*
D13*
%TO.P,J4,2,Pin_2*%
%TO.N,Net-(J4-Pin_2)*%
X195500000Y-65770000D03*
%TO.P,J4,3,Pin_3*%
%TO.N,unconnected-(J4-Pin_3-Pad3)*%
X195500000Y-67040000D03*
%TD*%
D12*
%TO.P,J3,1,Pin_1*%
%TO.N,unconnected-(J3-Pin_1-Pad1)*%
X196025000Y-83725000D03*
D13*
%TO.P,J3,2,Pin_2*%
%TO.N,unconnected-(J3-Pin_2-Pad2)*%
X196025000Y-84995000D03*
%TO.P,J3,3,Pin_3*%
%TO.N,unconnected-(J3-Pin_3-Pad3)*%
X196025000Y-86265000D03*
%TD*%
D12*
%TO.P,J2,1,Pin_1*%
%TO.N,Net-(J2-Pin_1)*%
X104000000Y-61500000D03*
D13*
%TO.P,J2,2,Pin_2*%
%TO.N,Net-(J2-Pin_2)*%
X104000000Y-62770000D03*
%TO.P,J2,3,Pin_3*%
%TO.N,unconnected-(J2-Pin_3-Pad3)*%
X104000000Y-64040000D03*
%TD*%
D12*
%TO.P,J1,1,Pin_1*%
%TO.N,Net-(J1-Pin_1)*%
X104000000Y-86460000D03*
D13*
%TO.P,J1,2,Pin_2*%
%TO.N,Net-(J1-Pin_2)*%
X104000000Y-87730000D03*
%TO.P,J1,3,Pin_3*%
%TO.N,unconnected-(J1-Pin_3-Pad3)*%
X104000000Y-89000000D03*
%TD*%
D14*
%TO.P,U7,1*%
%TO.N,Net-(U5-Pad3)*%
X161200000Y-63800000D03*
D15*
%TO.P,U7,2*%
%TO.N,Net-(D4-A)*%
X163740000Y-63800000D03*
%TO.P,U7,3*%
%TO.N,Net-(D3-A)*%
X166280000Y-63800000D03*
%TO.P,U7,4*%
%TO.N,N/C*%
X168820000Y-63800000D03*
%TO.P,U7,5*%
X168820000Y-56180000D03*
%TO.P,U7,6*%
X166280000Y-56180000D03*
%TO.P,U7,7*%
X163740000Y-56180000D03*
%TO.P,U7,8*%
X161200000Y-56180000D03*
%TD*%
D14*
%TO.P,U6,1*%
%TO.N,Net-(D3-A)*%
X161200000Y-88800000D03*
D15*
%TO.P,U6,2*%
%TO.N,Net-(U4-Pad3)*%
X163740000Y-88800000D03*
%TO.P,U6,3*%
%TO.N,Net-(D4-A)*%
X166280000Y-88800000D03*
%TO.P,U6,4*%
%TO.N,N/C*%
X168820000Y-88800000D03*
%TO.P,U6,5*%
X168820000Y-81180000D03*
%TO.P,U6,6*%
X166280000Y-81180000D03*
%TO.P,U6,7*%
X163740000Y-81180000D03*
%TO.P,U6,8*%
X161200000Y-81180000D03*
%TD*%
D14*
%TO.P,U5,1*%
%TO.N,Net-(U3-Pad2)*%
X146200000Y-63800000D03*
D15*
%TO.P,U5,2*%
%TO.N,Net-(R2-Pad1)*%
X148740000Y-63800000D03*
%TO.P,U5,3*%
%TO.N,Net-(U5-Pad3)*%
X151280000Y-63800000D03*
%TO.P,U5,4*%
%TO.N,N/C*%
X153820000Y-63800000D03*
%TO.P,U5,5*%
X153820000Y-56180000D03*
%TO.P,U5,6*%
X151280000Y-56180000D03*
%TO.P,U5,7*%
X148740000Y-56180000D03*
%TO.P,U5,8*%
X146200000Y-56180000D03*
%TD*%
D14*
%TO.P,U4,1*%
%TO.N,Net-(R2-Pad1)*%
X146200000Y-88800000D03*
D15*
%TO.P,U4,2*%
%TO.N,Net-(R1-Pad1)*%
X148740000Y-88800000D03*
%TO.P,U4,3*%
%TO.N,Net-(U4-Pad3)*%
X151280000Y-88800000D03*
%TO.P,U4,4*%
%TO.N,N/C*%
X153820000Y-88800000D03*
%TO.P,U4,5*%
X153820000Y-81180000D03*
%TO.P,U4,6*%
X151280000Y-81180000D03*
%TO.P,U4,7*%
X148740000Y-81180000D03*
%TO.P,U4,8*%
X146200000Y-81180000D03*
%TD*%
D14*
%TO.P,U3,1*%
%TO.N,Net-(R1-Pad1)*%
X131200000Y-63800000D03*
D15*
%TO.P,U3,2*%
%TO.N,Net-(U3-Pad2)*%
X133740000Y-63800000D03*
%TO.P,U3,3*%
%TO.N,N/C*%
X136280000Y-63800000D03*
%TO.P,U3,4*%
X138820000Y-63800000D03*
%TO.P,U3,5*%
X138820000Y-56180000D03*
%TO.P,U3,6*%
X136280000Y-56180000D03*
%TO.P,U3,7*%
X133740000Y-56180000D03*
%TO.P,U3,8*%
X131200000Y-56180000D03*
%TD*%
D16*
%TO.P,U2,1*%
%TO.N,Net-(J1-Pin_2)*%
X111750000Y-81750000D03*
X111750000Y-88250000D03*
%TO.P,U2,2*%
%TO.N,Net-(R2-Pad1)*%
X116250000Y-81750000D03*
X116250000Y-88250000D03*
%TD*%
%TO.P,U1,1*%
%TO.N,Net-(J1-Pin_1)*%
X111750000Y-61750000D03*
X111750000Y-68250000D03*
%TO.P,U1,2*%
%TO.N,Net-(R1-Pad1)*%
X116250000Y-61750000D03*
X116250000Y-68250000D03*
%TD*%
D15*
%TO.P,R4,2*%
%TO.N,Net-(J4-Pin_2)*%
X188810000Y-95000000D03*
D17*
%TO.P,R4,1*%
%TO.N,Net-(D4-K)*%
X181190000Y-95000000D03*
%TD*%
%TO.P,R3,1*%
%TO.N,Net-(D3-K)*%
X181190000Y-55000000D03*
D15*
%TO.P,R3,2*%
%TO.N,Net-(J4-Pin_1)*%
X188810000Y-55000000D03*
%TD*%
D17*
%TO.P,R2,1*%
%TO.N,Net-(R2-Pad1)*%
X116190000Y-95000000D03*
D15*
%TO.P,R2,2*%
%TO.N,Net-(J2-Pin_2)*%
X123810000Y-95000000D03*
%TD*%
D17*
%TO.P,R1,1*%
%TO.N,Net-(R1-Pad1)*%
X116190000Y-55000000D03*
D15*
%TO.P,R1,2*%
%TO.N,Net-(J2-Pin_1)*%
X123810000Y-55000000D03*
%TD*%
D18*
%TO.P,D4,1,K*%
%TO.N,Net-(D4-K)*%
X183175000Y-86250000D03*
D19*
%TO.P,D4,2,A*%
%TO.N,Net-(D4-A)*%
X183175000Y-83710000D03*
%TD*%
D18*
%TO.P,D3,1,K*%
%TO.N,Net-(D3-K)*%
X183175000Y-66250000D03*
D19*
%TO.P,D3,2,A*%
%TO.N,Net-(D3-A)*%
X183175000Y-63710000D03*
%TD*%
D20*
%TO.N,Net-(J2-Pin_2)*%
X104500000Y-70000000D03*
X107500000Y-89500000D03*
%TO.N,Net-(D3-A)*%
X181000000Y-64000000D03*
X177000000Y-64000000D03*
%TO.N,Net-(D4-A)*%
X163000000Y-69000000D03*
X165000000Y-71000000D03*
%TO.N,Net-(R2-Pad1)*%
X127000000Y-89000000D03*
X125000000Y-91000000D03*
%TD*%
D21*
%TO.N,Net-(J2-Pin_2)*%
X107500000Y-73000000D02*
X104500000Y-70000000D01*
X107500000Y-89500000D02*
X107500000Y-73000000D01*
%TO.N,Net-(D3-A)*%
X177000000Y-64000000D02*
X181000000Y-64000000D01*
%TO.N,Net-(D4-A)*%
X165000000Y-71000000D02*
X163000000Y-69000000D01*
%TO.N,Net-(R2-Pad1)*%
X125000000Y-91000000D02*
X127000000Y-89000000D01*
%TD*%
M02*
