%TF.GenerationSoftware,KiCad,Pcbnew,7.0.7*%
%TF.CreationDate,2023-11-02T13:25:28-04:00*%
%TF.ProjectId,TEJ4M-Unit-4-08,54454a34-4d2d-4556-9e69-742d342d3038,rev?*%
%TF.SameCoordinates,Original*%
%TF.FileFunction,Soldermask,Bot*%
%TF.FilePolarity,Negative*%
%FSLAX46Y46*%
G04 Gerber Fmt 4.6, Leading zero omitted, Abs format (unit mm)*
G04 Created by KiCad (PCBNEW 7.0.7) date 2023-11-02 13:25:28*
%MOMM*%
%LPD*%
G01*
G04 APERTURE LIST*
%ADD10R,1.000000X1.000000*%
%ADD11O,1.000000X1.000000*%
%ADD12R,1.600000X1.600000*%
%ADD13O,1.600000X1.600000*%
%ADD14C,2.000000*%
%ADD15C,2.500000*%
%ADD16C,1.600000*%
%ADD17R,1.800000X1.800000*%
%ADD18C,1.800000*%
G04 APERTURE END LIST*
D10*
%TO.C,J4*%
X195500000Y-64500000D03*
D11*
X195500000Y-65770000D03*
X195500000Y-67040000D03*
%TD*%
D10*
%TO.C,J3*%
X196025000Y-83725000D03*
D11*
X196025000Y-84995000D03*
X196025000Y-86265000D03*
%TD*%
D10*
%TO.C,J2*%
X104000000Y-61500000D03*
D11*
X104000000Y-62770000D03*
X104000000Y-64040000D03*
%TD*%
D10*
%TO.C,J1*%
X104000000Y-86460000D03*
D11*
X104000000Y-87730000D03*
X104000000Y-89000000D03*
%TD*%
D12*
%TO.C,U7*%
X161200000Y-63800000D03*
D13*
X163740000Y-63800000D03*
X166280000Y-63800000D03*
X168820000Y-63800000D03*
X168820000Y-56180000D03*
X166280000Y-56180000D03*
X163740000Y-56180000D03*
X161200000Y-56180000D03*
%TD*%
D12*
%TO.C,U6*%
X161200000Y-88800000D03*
D13*
X163740000Y-88800000D03*
X166280000Y-88800000D03*
X168820000Y-88800000D03*
X168820000Y-81180000D03*
X166280000Y-81180000D03*
X163740000Y-81180000D03*
X161200000Y-81180000D03*
%TD*%
D12*
%TO.C,U5*%
X146200000Y-63800000D03*
D13*
X148740000Y-63800000D03*
X151280000Y-63800000D03*
X153820000Y-63800000D03*
X153820000Y-56180000D03*
X151280000Y-56180000D03*
X148740000Y-56180000D03*
X146200000Y-56180000D03*
%TD*%
D12*
%TO.C,U4*%
X146200000Y-88800000D03*
D13*
X148740000Y-88800000D03*
X151280000Y-88800000D03*
X153820000Y-88800000D03*
X153820000Y-81180000D03*
X151280000Y-81180000D03*
X148740000Y-81180000D03*
X146200000Y-81180000D03*
%TD*%
D12*
%TO.C,U3*%
X131200000Y-63800000D03*
D13*
X133740000Y-63800000D03*
X136280000Y-63800000D03*
X138820000Y-63800000D03*
X138820000Y-56180000D03*
X136280000Y-56180000D03*
X133740000Y-56180000D03*
X131200000Y-56180000D03*
%TD*%
D14*
%TO.C,U2*%
X111750000Y-81750000D03*
X111750000Y-88250000D03*
X116250000Y-81750000D03*
X116250000Y-88250000D03*
%TD*%
%TO.C,U1*%
X111750000Y-61750000D03*
X111750000Y-68250000D03*
X116250000Y-61750000D03*
X116250000Y-68250000D03*
%TD*%
D15*
%TO.C,H4*%
X196000000Y-96000000D03*
%TD*%
%TO.C,H3*%
X104000000Y-96000000D03*
%TD*%
%TO.C,H2*%
X196000000Y-54000000D03*
%TD*%
%TO.C,H1*%
X104000000Y-54000000D03*
%TD*%
D13*
%TO.C,R4*%
X188810000Y-95000000D03*
D16*
X181190000Y-95000000D03*
%TD*%
%TO.C,R3*%
X181190000Y-55000000D03*
D13*
X188810000Y-55000000D03*
%TD*%
D16*
%TO.C,R2*%
X116190000Y-95000000D03*
D13*
X123810000Y-95000000D03*
%TD*%
D16*
%TO.C,R1*%
X116190000Y-55000000D03*
D13*
X123810000Y-55000000D03*
%TD*%
D17*
%TO.C,D4*%
X183175000Y-86250000D03*
D18*
X183175000Y-83710000D03*
%TD*%
D17*
%TO.C,D3*%
X183175000Y-66250000D03*
D18*
X183175000Y-63710000D03*
%TD*%
M02*
